<svg xmlns="http://www.w3.org/2000/svg" width="1024" height="1024" viewBox="0 0 1024 1024">
<g>
<path d="M 407.88 398.10 C406.44,399.12 404.07,400.40 402.60,400.96 C400.20,401.87 400.04,401.79 400.92,400.14 C402.96,396.34 424.37,376.88 432.27,371.66 C450.36,359.70 471.65,351.63 490.50,349.59 L 495.50 349.05 L 489.95 351.77 C474.37,359.43 464.53,366.35 454.45,376.74 C444.70,386.81 444.33,387.07 441.53,386.01 C439.20,385.13 437.28,385.33 431.61,387.05 C424.50,389.21 412.67,394.72 407.88,398.10 Z" fill="rgb(84,176,154)"/>
<path d="M 407.88 398.10 C412.67,394.72 424.50,389.21 431.61,387.05 C437.28,385.33 439.20,385.13 441.53,386.01 C444.21,387.03 444.66,386.83 453.27,377.96 C444.36,387.32 439.93,393.61 436.39,401.76 C435.02,404.92 433.25,408.85 432.45,410.50 C429.39,416.87 426.96,425.65 425.84,434.38 L 424.68 443.49 L 419.69 447.97 C415.13,452.06 409.00,462.25 409.00,465.73 C409.00,466.40 408.10,468.43 407.00,470.23 C404.95,473.59 404.36,477.58 405.83,478.17 C406.28,478.35 406.31,481.88 405.89,486.00 C405.47,490.12 405.10,500.31 405.06,508.64 C405.01,521.49 404.76,523.88 403.42,524.39 C399.13,526.04 397.29,523.61 395.15,513.50 C393.74,506.80 394.55,480.65 396.50,470.00 C397.36,465.33 398.34,460.04 398.66,458.25 C399.00,456.40 398.84,455.00 398.29,455.00 C397.32,455.00 392.60,469.30 391.35,476.00 C390.99,477.92 390.09,480.39 389.35,481.47 C388.61,482.56 388.00,484.16 388.00,485.02 C388.00,487.48 385.63,491.98 384.33,491.99 C383.69,492.00 382.39,489.68 381.45,486.84 C379.50,480.97 379.87,472.17 382.47,463.00 C385.17,453.46 386.42,447.09 385.73,446.40 C385.36,446.03 383.69,446.30 382.01,447.00 C379.08,448.21 378.95,448.52 379.06,453.88 C379.19,459.73 377.15,467.12 375.23,467.76 C373.82,468.23 372.01,461.76 372.01,456.20 C372.00,452.91 372.58,451.37 374.47,449.61 C376.25,447.96 377.08,445.94 377.43,442.37 C378.43,432.34 387.64,416.22 400.51,400.99 C400.21,401.78 400.71,401.68 402.60,400.96 C404.07,400.40 406.44,399.12 407.88,398.10 ZM 469.43 363.73 C475.28,359.55 481.83,355.76 489.95,351.77 L 495.50 349.05 L 490.50 349.59 C489.25,349.72 488.00,349.89 486.73,350.07 C488.54,349.74 490.56,349.38 492.85,348.98 C499.15,347.87 502.87,348.33 497.37,349.53 C491.81,350.75 488.39,352.37 476.50,359.36 C473.75,360.97 471.46,362.38 469.43,363.73 ZM 532.99 351.51 C531.61,353.18 531.32,353.21 528.50,352.00 C526.90,351.31 526.84,351.13 528.17,351.07 C529.08,351.03 530.01,350.47 530.23,349.82 C530.46,349.13 531.36,348.93 532.42,349.33 C533.89,349.90 534.00,350.30 532.99,351.51 ZM 427.66 375.07 C423.15,378.64 417.32,383.71 412.25,388.40 C412.51,388.15 412.78,387.89 413.04,387.64 C417.99,382.90 422.80,378.75 427.66,375.07 ZM 455.56 359.14 C448.62,362.10 441.80,365.65 435.33,369.69 C441.69,365.58 448.30,362.14 455.56,359.14 Z" fill="rgb(121,199,179)"/>
<path d="M 469.43 363.73 L 469.43 363.73 C471.46,362.38 473.75,360.97 476.50,359.36 C488.39,352.37 491.81,350.75 497.37,349.53 C499.24,349.12 500.04,348.80 500.04,348.59 C506.15,348.18 512.51,348.09 519.21,348.29 C537.20,348.84 545.53,350.11 551.15,353.17 C553.72,354.56 553.52,354.65 545.15,355.90 C532.51,357.77 517.43,361.77 510.00,365.21 C495.55,371.90 492.28,373.55 487.30,376.71 C483.78,378.93 480.87,380.00 478.30,380.01 C471.10,380.02 455.11,382.94 450.57,385.07 C444.72,387.82 440.44,392.76 436.79,400.95 C436.03,402.65 435.19,404.51 434.44,406.17 C435.09,404.73 435.78,403.17 436.39,401.76 C439.93,393.61 444.36,387.32 453.27,377.96 C453.65,377.57 454.04,377.16 454.45,376.74 C459.28,371.76 464.05,367.58 469.43,363.73 ZM 394.23 465.15 C391.71,474.47 388.82,488.47 387.42,499.50 L 386.78 504.50 L 385.14 502.08 C381.85,497.22 379.08,489.39 379.04,484.86 C379.01,481.87 379.69,476.68 380.72,471.18 C379.86,477.24 380.09,482.75 381.45,486.84 C382.39,489.68 383.69,492.00 384.33,491.99 C385.63,491.98 388.00,487.48 388.00,485.02 C388.00,484.16 388.61,482.56 389.35,481.47 C390.09,480.39 390.99,477.92 391.35,476.00 C391.87,473.18 393.01,469.02 394.23,465.15 ZM 403.89 525.75 C403.43,526.99 402.48,528.00 401.77,528.00 C399.53,527.99 393.80,518.41 393.30,513.81 C392.91,510.26 393.84,495.94 395.04,483.43 C394.26,495.07 394.18,508.89 395.15,513.50 C397.29,523.61 399.13,526.04 403.42,524.39 C403.75,524.26 404.02,524.02 404.23,523.53 C404.11,524.69 404.00,525.46 403.89,525.75 ZM 384.69 446.26 C383.48,447.42 381.31,452.50 378.67,460.44 C378.48,461.00 378.29,461.55 378.09,462.09 C378.72,459.56 379.12,456.56 379.06,453.88 C378.95,448.52 379.08,448.21 382.01,447.00 C382.99,446.59 383.97,446.33 384.69,446.26 ZM 405.06 509.83 C405.06,509.45 405.06,509.05 405.06,508.64 C405.10,500.31 405.47,490.12 405.89,486.00 C406.31,481.88 406.28,478.35 405.83,478.17 C404.36,477.58 404.95,473.59 407.00,470.23 C408.10,468.43 409.00,466.40 409.00,465.73 C409.00,464.15 410.26,461.20 412.07,458.05 C407.68,467.00 405.90,480.13 405.28,503.00 C405.22,505.35 405.14,507.65 405.06,509.83 ZM 380.17 432.51 C378.66,436.18 377.72,439.52 377.43,442.37 C377.08,445.94 376.25,447.96 374.47,449.61 C373.56,450.46 372.95,451.26 372.57,452.22 C373.42,448.36 375.24,443.42 378.10,437.18 C378.91,435.42 379.64,433.76 380.17,432.51 ZM 532.99 351.51 C534.00,350.30 533.89,349.90 532.42,349.33 C531.36,348.93 530.46,349.13 530.23,349.82 C530.01,350.47 529.08,351.03 528.17,351.07 C526.84,351.13 526.90,351.31 528.50,352.00 C531.32,353.21 531.61,353.18 532.99,351.51 ZM 455.56 359.14 C455.55,359.14 455.54,359.15 455.52,359.15 C451.51,360.81 447.69,362.61 444.00,364.58 C457.75,357.09 471.72,352.34 487.22,349.98 C487.05,350.01 486.89,350.04 486.73,350.07 C476.64,351.56 465.97,354.69 455.56,359.14 ZM 400.86 400.27 C400.70,400.56 400.58,400.80 400.51,400.99 C398.07,403.88 395.75,406.81 393.60,409.72 C394.76,408.03 395.82,406.52 396.70,405.34 C397.84,403.81 399.25,402.10 400.86,400.27 ZM 381.00 430.32 C381.00,429.97 381.85,428.36 383.19,426.08 C382.15,428.07 381.23,429.99 380.45,431.84 C380.79,431.00 381.00,430.44 381.00,430.32 ZM 427.66 375.07 C426.45,375.99 425.24,376.93 424.04,377.90 C427.07,375.39 429.90,373.23 432.27,371.66 C433.53,370.83 434.79,370.02 436.05,369.23 C435.81,369.38 435.57,369.54 435.33,369.69 C434.30,370.34 433.28,370.99 432.27,371.66 C431.02,372.48 429.44,373.66 427.66,375.07 ZM 396.68 469.05 C396.96,467.09 397.23,465.52 397.48,464.50 C397.53,464.27 397.59,464.05 397.64,463.84 C397.34,465.48 397.00,467.29 396.68,469.05 ZM 382.52 462.81 C382.99,460.91 383.47,459.11 383.97,457.46 C383.55,459.10 383.07,460.89 382.52,462.81 ZM 372.01 456.51 C372.04,459.36 372.54,462.41 373.20,464.62 C372.52,462.42 372.01,459.43 372.01,456.78 C372.01,456.69 372.01,456.60 372.01,456.51 ZM 418.71 448.92 C419.04,448.58 419.37,448.26 419.69,447.97 L 421.82 446.05 L 419.50 448.18 C419.23,448.42 418.96,448.67 418.71,448.92 ZM 385.91 447.06 C385.87,446.78 385.80,446.55 385.71,446.38 C385.72,446.39 385.73,446.39 385.73,446.40 C385.83,446.50 385.89,446.72 385.91,447.06 ZM 398.54 455.12 C398.46,455.06 398.36,455.02 398.26,455.01 C398.27,455.00 398.28,455.00 398.29,455.00 C398.39,455.00 398.47,455.04 398.54,455.12 Z" fill="rgb(143,210,185)"/>
<path d="M 486.38 635.18 L 485.26 635.45 C476.34,637.58 473.16,638.34 470.15,637.92 C468.36,637.67 466.63,637.01 463.79,635.97 C450.08,630.95 430.24,619.76 420.50,611.57 C417.98,609.45 417.74,608.89 419.00,608.04 C422.42,605.74 431.96,608.07 434.61,611.85 C435.66,613.36 437.14,613.63 443.41,613.48 C447.55,613.38 451.52,612.81 452.24,612.21 C452.98,611.60 457.68,611.13 463.02,611.14 C471.57,611.14 473.77,611.57 485.50,615.54 C492.65,617.95 503.89,621.01 510.47,622.33 L 522.44 624.72 L 519.42 626.28 C517.76,627.14 513.69,628.76 510.38,629.87 L 504.35 631.90 L 490.92 628.54 C483.54,626.69 473.06,623.56 467.63,621.59 C467.13,621.41 466.66,621.23 466.21,621.07 C458.97,618.44 457.41,617.87 457.08,618.28 C456.99,618.39 456.99,618.58 457.00,618.82 C457.00,618.87 457.00,618.93 457.00,618.99 C457.00,620.17 469.26,626.39 480.88,631.10 C488.60,634.23 489.03,634.55 486.38,635.18 ZM 537.46 616.92 C531.70,620.58 528.34,620.72 513.50,617.91 C497.89,614.96 480.58,610.96 479.72,610.11 C477.95,608.37 480.45,606.18 486.19,604.44 C492.20,602.62 492.41,602.63 502.39,604.76 C507.95,605.96 516.15,607.14 520.60,607.39 C530.00,607.92 535.32,609.20 539.41,611.91 L 542.31 613.85 ZM 457.77 582.98 C457.16,586.22 441.98,584.41 438.21,580.63 C436.69,579.12 436.79,579.00 439.53,579.00 C441.15,579.00 445.99,579.55 450.27,580.23 C456.30,581.17 457.99,581.79 457.77,582.98 Z" fill="rgb(148,126,184)"/>
<path d="M 457.77 582.98 C457.96,581.96 456.75,581.36 452.59,580.61 L 452.75 580.63 C455.64,580.99 458.00,581.61 458.00,582.03 C458.00,584.13 467.47,592.91 472.28,595.26 C482.99,600.51 498.25,604.20 522.85,607.52 L 523.10 607.55 C522.30,607.49 521.47,607.44 520.60,607.39 C516.15,607.14 507.95,605.96 502.39,604.76 C492.41,602.63 492.20,602.62 486.19,604.44 C480.45,606.18 477.95,608.37 479.72,610.11 C479.93,610.32 481.18,610.73 483.16,611.27 C480.00,610.47 477.20,609.71 475.00,609.03 C458.72,603.99 468.65,609.76 487.00,616.01 C487.76,616.27 488.59,616.54 489.46,616.81 C488.05,616.38 486.72,615.95 485.50,615.54 C473.77,611.57 471.57,611.14 463.02,611.14 C457.68,611.13 452.98,611.60 452.24,612.21 C451.52,612.81 447.55,613.38 443.41,613.48 C437.14,613.63 435.66,613.36 434.61,611.85 C431.96,608.07 422.42,605.74 419.00,608.04 C417.97,608.73 417.94,609.23 419.34,610.55 C419.10,610.36 418.87,610.17 418.63,609.99 C405.45,599.37 387.58,577.33 388.69,573.07 C389.14,571.35 389.90,571.22 396.59,571.73 C400.70,572.04 404.00,571.89 403.99,571.39 C403.99,570.90 401.77,567.65 399.06,564.16 C391.51,554.44 393.39,553.98 405.99,562.45 C419.29,571.40 432.87,577.14 446.91,579.74 C443.71,579.30 440.73,579.00 439.53,579.00 C436.79,579.00 436.69,579.12 438.21,580.63 C441.98,584.41 457.16,586.22 457.77,582.98 ZM 434.94 621.62 C444.32,627.32 455.25,632.84 463.79,635.97 C454.21,632.46 444.37,627.55 434.94,621.62 ZM 532.80 619.20 C531.40,619.69 530.05,620.00 528.96,620.00 C528.26,620.00 527.29,619.93 526.08,619.80 C528.86,619.97 530.92,619.78 532.80,619.20 ZM 537.46 616.92 L 539.62 615.55 C538.54,616.42 537.01,617.35 535.39,618.13 C536.06,617.78 536.74,617.38 537.46,616.92 ZM 539.50 611.98 C539.97,612.26 540.44,612.56 540.92,612.88 C540.99,612.93 541.06,612.98 541.10,613.04 ZM 510.47 622.32 L 522.44 624.72 L 510.47 622.33 C509.27,622.09 507.91,621.79 506.45,621.44 C507.89,621.78 509.25,622.08 510.47,622.32 Z" fill="rgb(165,143,194)"/>
<path d="M 422.96 445.03 L 424.68 443.49 L 425.84 434.38 C426.96,425.65 429.39,416.87 432.45,410.50 C432.89,409.59 433.63,407.97 434.44,406.17 L 434.44 406.17 C435.19,404.51 436.03,402.65 436.79,400.95 C440.44,392.76 444.72,387.82 450.57,385.07 C455.11,382.94 471.10,380.02 478.30,380.01 C480.68,380.00 483.36,379.08 486.53,377.18 C479.55,381.72 469.23,391.60 461.81,400.88 C451.49,413.77 447.23,424.53 443.96,446.00 C440.36,469.67 437.14,479.07 432.39,479.79 C427.12,480.58 425.44,475.84 424.40,457.25 C424.02,450.51 423.42,445.00 423.06,445.00 C423.04,445.00 423.00,445.01 422.96,445.03 ZM 550.75 355.00 C553.37,354.47 552.92,354.13 551.15,353.17 C548.44,351.70 545.11,350.64 540.38,349.88 C542.68,350.18 544.71,350.52 546.35,350.89 C551.22,351.98 555.43,353.10 555.72,353.39 C556.15,353.82 555.30,354.17 550.75,355.00 ZM 521.63 348.37 C520.84,348.34 520.03,348.32 519.21,348.29 C512.51,348.09 506.15,348.18 500.04,348.59 C500.04,348.47 499.74,348.39 499.19,348.36 C505.35,347.99 513.57,348.02 521.63,348.37 ZM 533.03 358.17 C537.11,357.26 541.25,356.48 545.15,355.90 C546.65,355.67 547.89,355.49 548.90,355.32 C547.18,355.62 545.07,355.97 542.50,356.39 C539.26,356.92 536.09,357.51 533.03,358.17 ZM 412.12 457.95 C407.73,466.94 405.91,480.06 405.29,502.97 C405.91,480.11 407.68,467.00 412.07,458.05 C412.08,458.02 412.10,457.99 412.12,457.95 ZM 490.99 349.31 C489.64,349.55 488.39,349.77 487.22,349.98 C487.03,350.01 486.85,350.04 486.66,350.07 C488.08,349.81 489.52,349.55 490.99,349.31 ZM 490.57 374.72 C494.33,372.55 498.82,370.39 510.00,365.21 C510.17,365.13 510.34,365.06 510.51,364.98 C510.34,365.06 510.17,365.13 510.00,365.21 C498.94,370.33 494.43,372.50 490.57,374.72 Z" fill="rgb(158,220,194)"/>
<path d="M 461.20 586.47 C459.31,584.52 458.00,582.81 458.00,582.03 C458.00,581.61 455.64,580.99 452.75,580.63 L 452.59 580.61 C451.90,580.49 451.13,580.36 450.27,580.23 C449.17,580.05 448.02,579.89 446.91,579.74 C432.87,577.14 419.29,571.40 405.99,562.45 C393.39,553.98 391.51,554.44 399.06,564.16 C401.77,567.65 403.99,570.90 403.99,571.39 C404.00,571.89 400.70,572.04 396.59,571.73 C389.90,571.22 389.14,571.35 388.69,573.07 C388.36,574.36 389.74,577.25 392.20,580.96 C385.27,571.08 379.55,560.36 375.29,549.04 C372.94,542.79 367.63,522.04 368.23,521.44 C368.39,521.28 371.89,525.70 376.01,531.26 C386.20,545.03 396.03,554.75 403.85,558.77 L 410.20 562.03 L 413.85 558.96 C420.91,553.02 421.62,552.50 422.55,552.56 C425.25,552.72 431.33,554.48 438.34,557.13 C442.65,558.76 452.24,561.21 459.64,562.58 C476.44,565.68 488.54,569.45 491.63,572.54 C494.46,575.37 494.54,576.12 492.25,578.94 C489.63,582.17 483.85,583.10 470.75,582.38 C462.18,581.92 459.00,582.05 459.00,582.89 C459.00,583.65 459.86,584.96 461.20,586.47 ZM 434.94 621.62 C444.37,627.55 454.21,632.46 463.79,635.97 C452.46,631.82 441.73,626.32 431.83,619.68 C432.84,620.33 433.88,620.97 434.94,621.62 Z" fill="rgb(193,168,206)"/>
<path d="M 545.84 641.55 C535.82,643.68 526.00,644.81 526.00,643.84 C526.00,643.40 527.24,642.78 528.75,642.47 C541.16,639.88 559.26,628.90 571.83,616.33 C577.69,610.48 581.98,606.98 583.33,606.95 C589.65,606.80 620.66,596.48 623.58,593.56 C624.44,592.70 625.67,592.02 626.32,592.03 C626.97,592.05 625.81,593.45 623.75,595.13 C621.69,596.82 620.00,598.73 620.00,599.39 C620.00,601.26 605.50,613.52 594.94,620.57 C579.84,630.65 562.74,637.96 545.84,641.55 ZM 590.00 596.88 C590.00,597.98 589.55,599.16 589.00,599.50 C588.45,599.84 588.00,599.22 588.00,598.12 C588.00,597.02 588.45,595.84 589.00,595.50 C589.55,595.16 590.00,595.78 590.00,596.88 Z" fill="rgb(173,85,120)"/>
<path d="M 486.38 635.18 C488.28,634.73 488.59,634.43 485.75,633.14 C488.46,634.22 490.40,634.92 490.81,634.94 C492.75,635.03 501.38,632.84 502.30,632.02 C502.59,631.75 501.13,631.15 498.72,630.49 L 504.35 631.90 L 510.38 629.87 C513.69,628.76 517.76,627.14 519.42,626.28 L 522.23 624.83 C522.51,624.89 522.68,624.93 522.69,624.93 C522.80,624.97 524.54,624.02 526.57,622.83 L 530.25 620.65 L 524.42 619.66 C525.00,619.72 525.55,619.76 526.08,619.80 C527.29,619.93 528.26,620.00 528.96,620.00 C530.05,620.00 531.40,619.69 532.80,619.20 C533.68,618.93 534.53,618.58 535.39,618.13 C537.01,617.35 538.54,616.42 539.62,615.55 L 542.31 613.85 L 541.10 613.04 C541.06,612.98 540.99,612.93 540.92,612.88 C540.69,612.72 540.47,612.58 540.24,612.43 C542.52,613.65 543.22,613.54 544.61,612.49 C545.86,611.55 549.21,611.04 554.50,610.99 C558.90,610.95 566.23,610.36 570.79,609.69 L 579.08 608.46 L 583.63 601.98 C593.51,587.89 598.87,574.10 601.09,557.07 C602.20,548.55 602.24,548.47 607.11,544.17 C609.81,541.78 613.23,537.73 614.71,535.17 C616.19,532.60 617.69,530.28 618.04,530.00 C618.39,529.72 619.49,523.65 620.48,516.50 C622.27,503.64 623.33,501.00 626.74,501.00 C627.49,501.00 628.57,502.35 629.15,504.00 C629.73,505.65 630.57,507.00 631.03,507.00 C632.95,507.00 632.95,511.44 631.03,522.31 C628.73,535.35 628.68,536.00 629.84,536.00 C630.30,536.00 632.16,530.74 633.97,524.31 C635.78,517.88 638.09,511.25 639.11,509.58 C640.56,507.19 640.84,505.33 640.40,501.02 C640.03,497.43 640.17,495.97 640.78,496.84 C641.30,497.57 642.07,498.10 642.49,498.01 C642.91,497.93 644.31,499.70 645.59,501.95 C647.77,505.81 647.91,509.00 645.89,509.00 C645.40,509.00 645.00,510.12 645.00,511.50 C645.00,512.93 645.58,514.00 646.35,514.00 C648.00,514.00 647.09,520.83 643.56,534.76 C641.37,543.40 641.44,546.66 643.76,543.74 C644.56,542.74 647.53,534.99 651.32,524.00 C651.63,523.11 651.87,523.00 651.92,523.75 C651.96,524.44 652.62,525.00 653.37,525.00 C654.72,525.00 656.21,530.95 656.07,535.82 C655.96,539.96 650.90,553.27 645.36,564.00 C639.98,574.40 633.59,583.96 626.32,592.61 C626.55,592.25 626.57,592.04 626.32,592.03 C625.67,592.02 624.44,592.70 623.58,593.56 C620.66,596.48 589.65,606.80 583.33,606.95 C581.98,606.98 577.69,610.48 571.83,616.33 C559.26,628.90 541.16,639.88 528.75,642.47 C527.24,642.78 526.00,643.40 526.00,643.84 C526.00,643.97 526.17,644.06 526.50,644.12 C515.59,644.86 503.55,644.90 497.50,643.95 C483.99,641.82 475.25,639.89 467.58,637.31 C468.50,637.60 469.32,637.81 470.15,637.92 C473.16,638.34 476.34,637.58 485.26,635.45 ZM 590.00 596.88 C590.00,595.78 589.55,595.16 589.00,595.50 C588.45,595.84 588.00,597.02 588.00,598.12 C588.00,599.22 588.45,599.84 589.00,599.50 C589.55,599.16 590.00,597.98 590.00,596.88 ZM 619.89 599.76 C619.96,599.61 620.00,599.49 620.00,599.39 C620.00,598.73 621.69,596.82 623.75,595.13 C624.48,594.53 625.10,593.97 625.56,593.50 C623.72,595.65 621.83,597.73 619.89,599.76 ZM 467.50 621.54 C463.95,620.37 460.85,619.29 458.75,618.47 C457.74,618.07 457.00,618.24 457.00,618.88 C457.00,619.01 457.07,619.17 457.21,619.35 C457.07,619.20 457.00,619.08 457.00,618.99 C457.00,618.93 457.00,618.87 457.00,618.82 C456.99,618.58 456.99,618.39 457.08,618.28 C457.41,617.87 458.97,618.44 466.21,621.07 C466.62,621.22 467.05,621.38 467.50,621.54 ZM 589.81 623.84 C591.54,622.79 593.26,621.69 594.94,620.57 C599.04,617.83 603.72,614.32 607.93,610.93 C602.22,615.69 596.17,620.00 589.81,623.84 ZM 496.16 629.85 C495.72,629.75 495.26,629.65 494.80,629.55 C492.90,629.15 489.82,628.33 486.21,627.30 C487.86,627.75 489.45,628.17 490.92,628.54 ZM 392.74 581.76 C386.19,572.54 380.70,562.58 376.46,552.03 C380.57,562.25 385.88,571.95 392.20,580.96 C392.38,581.22 392.56,581.49 392.74,581.76 ZM 478.50 630.12 L 478.67 630.19 C475.55,628.89 472.43,627.50 469.58,626.16 C472.15,627.34 475.11,628.65 478.50,630.12 ZM 543.27 642.10 C542.17,642.33 540.93,642.55 539.59,642.76 C541.31,642.46 543.11,642.12 544.92,641.74 C544.37,641.86 543.82,641.98 543.27,642.10 ZM 483.63 611.40 C481.68,610.90 479.85,610.42 478.21,609.96 C479.72,610.38 481.38,610.82 483.16,611.27 C483.32,611.31 483.47,611.35 483.63,611.40 Z" fill="rgb(214,133,149)"/>
<path d="M 372.01 456.51 C372.01,456.60 372.01,456.69 372.01,456.78 C372.01,459.43 372.52,462.42 373.20,464.62 C373.81,466.66 374.57,467.98 375.23,467.76 C375.59,467.64 375.96,467.27 376.32,466.72 C376.14,467.08 375.99,467.33 375.88,467.45 C374.67,468.76 374.78,474.23 376.12,479.56 C376.73,482.00 377.53,484.00 377.90,484.00 C378.21,484.00 379.04,480.65 379.87,476.17 C379.34,479.70 379.02,482.80 379.04,484.86 C379.08,489.39 381.85,497.22 385.14,502.08 L 386.78 504.50 L 387.42 499.50 C387.61,497.95 387.84,496.34 388.09,494.70 C387.85,496.45 387.65,498.11 387.50,499.63 C386.86,506.32 387.00,507.03 389.63,511.13 L 392.44 515.50 L 394.15 493.44 C394.42,489.96 394.74,486.42 395.07,483.04 C395.06,483.17 395.05,483.30 395.04,483.43 C393.84,495.94 392.91,510.26 393.30,513.81 C393.80,518.41 399.53,527.99 401.77,528.00 C402.15,528.00 402.61,527.70 403.02,527.23 C402.22,529.12 402.46,529.84 404.05,532.07 C407.60,537.05 418.91,546.57 426.82,551.23 C432.11,554.34 436.48,556.48 441.57,558.21 C440.32,557.83 439.22,557.46 438.34,557.13 C431.33,554.48 425.25,552.72 422.55,552.56 C421.62,552.50 420.91,553.02 413.85,558.96 L 410.20 562.03 L 403.85 558.77 C396.03,554.75 386.20,545.03 376.01,531.26 C372.10,525.98 368.75,521.73 368.28,521.45 C367.44,516.72 366.83,512.30 366.61,508.82 C365.86,497.49 367.43,474.29 369.56,465.00 C370.39,461.42 371.50,456.48 372.03,454.00 C372.82,450.32 373.58,447.82 375.38,443.50 C374.04,446.88 373.11,449.77 372.57,452.22 C372.16,453.26 372.00,454.50 372.01,456.20 C372.01,456.31 372.01,456.41 372.01,456.51 ZM 555.04 678.57 C538.93,680.58 492.20,680.19 475.31,677.91 C466.42,676.72 462.35,674.80 465.00,673.05 C469.42,670.12 478.14,669.50 515.00,669.50 C553.09,669.50 566.54,670.48 570.72,673.54 C572.36,674.75 572.27,674.94 569.50,676.00 C567.85,676.63 561.34,677.79 555.04,678.57 ZM 405.06 509.83 C405.14,507.65 405.22,505.35 405.28,503.00 L 405.29 502.97 C405.29,502.82 405.29,502.67 405.30,502.52 C405.58,492.29 406.12,484.02 407.01,477.21 C406.11,484.13 405.58,492.55 405.31,503.00 C405.23,506.09 405.15,508.84 405.05,511.28 C405.05,510.81 405.05,510.33 405.06,509.83 ZM 371.19 535.21 C372.61,540.60 374.22,546.16 375.26,548.95 C373.90,545.32 372.48,540.45 371.19,535.21 ZM 429.90 618.43 C430.53,618.85 431.17,619.26 431.83,619.68 C439.81,625.03 448.33,629.64 457.27,633.40 C449.14,630.05 441.42,625.90 433.22,620.64 C432.11,619.92 431.00,619.18 429.90,618.43 ZM 384.69 446.26 L 384.71 446.25 C383.83,447.16 382.28,450.46 380.65,454.78 C382.39,450.10 383.80,447.11 384.69,446.26 ZM 384.14 456.76 C384.09,456.99 384.03,457.22 383.97,457.46 C383.57,458.78 383.18,460.21 382.80,461.70 C383.24,459.89 383.66,458.31 384.02,457.16 C384.06,457.03 384.10,456.89 384.14,456.76 ZM 377.92 462.73 C377.98,462.52 378.04,462.30 378.09,462.09 C378.29,461.55 378.48,461.00 378.67,460.44 C378.81,460.02 378.95,459.61 379.08,459.21 C378.89,459.80 378.69,460.39 378.50,461.00 C378.31,461.59 378.12,462.17 377.92,462.73 ZM 397.72 463.36 L 397.64 463.84 C397.59,464.05 397.53,464.27 397.48,464.50 C397.28,465.32 397.07,466.49 396.84,467.94 C397.06,466.52 397.26,465.38 397.43,464.63 C397.54,464.19 397.63,463.77 397.72,463.36 ZM 459.79 562.61 C469.32,564.37 477.36,566.36 483.07,568.31 C477.34,566.35 469.26,564.36 459.64,562.58 C459.57,562.57 459.49,562.55 459.41,562.54 C459.54,562.56 459.66,562.58 459.79,562.61 ZM 385.91 447.06 C385.91,447.08 385.91,447.10 385.91,447.11 C385.87,446.80 385.80,446.55 385.69,446.36 C385.80,446.55 385.87,446.78 385.91,447.06 Z" fill="rgb(211,194,215)"/>
<path d="M 603.87 546.00 C604.75,546.00 606.80,544.45 608.93,542.42 C608.31,543.06 607.69,543.65 607.11,544.17 C602.24,548.47 602.20,548.55 601.09,557.07 C598.87,574.10 593.51,587.89 583.63,601.98 L 579.08 608.46 L 570.79 609.69 C566.23,610.36 558.90,610.95 554.50,610.99 C549.52,611.04 546.26,611.49 544.85,612.33 L 549.34 608.53 C563.23,596.74 573.23,582.88 578.08,568.69 C579.62,564.19 581.82,554.20 582.98,546.50 C586.93,520.30 589.73,511.61 594.60,510.39 C600.15,508.99 601.94,514.53 601.98,533.25 C602.00,545.04 602.14,546.00 603.87,546.00 ZM 632.41 512.27 C632.65,508.61 632.19,507.00 631.03,507.00 C630.57,507.00 629.73,505.65 629.15,504.00 C628.57,502.35 627.49,501.00 626.74,501.00 C623.83,501.00 622.63,502.93 621.22,511.53 C621.70,506.31 622.11,497.09 622.19,488.81 C622.30,478.74 622.55,473.42 622.75,477.00 C622.94,480.58 623.53,483.93 624.05,484.45 C624.57,484.97 625.00,486.22 625.00,487.22 C625.00,489.47 630.12,492.15 630.75,490.24 C630.98,489.56 631.86,489.00 632.71,489.00 C634.06,489.00 634.17,490.47 633.56,500.25 C633.36,503.55 632.93,507.95 632.41,512.27 ZM 646.35 514.00 C645.58,514.00 645.00,512.93 645.00,511.50 C645.00,510.12 645.40,509.00 645.89,509.00 C647.91,509.00 647.77,505.81 645.59,501.95 C644.31,499.70 642.91,497.93 642.49,498.01 C642.07,498.10 641.30,497.57 640.78,496.84 C640.17,495.97 640.03,497.43 640.40,501.02 C640.84,505.33 640.56,507.19 639.11,509.58 C638.09,511.25 635.78,517.88 633.97,524.31 C633.55,525.79 633.13,527.21 632.73,528.51 C631.44,532.92 630.32,536.00 629.84,536.00 C630.19,536.00 631.38,532.88 632.73,528.51 C634.82,521.34 637.36,510.64 638.34,504.00 C639.22,497.95 640.00,495.13 640.47,496.24 C640.88,497.20 641.57,497.76 642.02,497.49 C642.46,497.22 644.03,499.13 645.51,501.75 C647.96,506.09 648.14,507.12 647.56,513.66 C647.48,514.65 647.31,515.92 647.09,517.37 C647.27,515.12 647.02,514.00 646.35,514.00 ZM 654.98 527.52 C654.50,526.00 653.92,525.00 653.37,525.00 C652.62,525.00 651.96,524.44 651.92,523.75 C651.87,523.00 651.63,523.11 651.32,524.00 C650.68,525.85 650.07,527.61 649.48,529.26 C650.37,526.57 651.00,524.39 651.00,523.74 C651.00,521.80 652.62,520.58 653.44,521.91 C653.84,522.56 654.45,524.90 654.98,527.52 ZM 620.35 517.40 C619.40,524.15 618.37,529.74 618.04,530.00 C617.76,530.22 616.77,531.72 615.63,533.60 C617.29,529.68 619.23,523.03 620.35,517.40 ZM 644.10 532.43 C645.27,527.65 646.43,521.70 647.09,517.37 C646.83,520.69 645.66,526.46 643.56,534.76 C643.51,534.92 643.47,535.09 643.43,535.26 C641.87,542.06 641.62,545.13 642.68,544.74 C641.52,545.21 641.77,541.91 643.43,535.26 C643.63,534.38 643.85,533.43 644.10,532.43 ZM 652.59 547.87 C654.65,542.49 656.02,537.95 656.07,535.82 C656.09,535.40 656.09,534.98 656.07,534.56 C656.11,535.07 656.13,535.50 656.12,535.82 C656.02,537.99 654.64,542.53 652.59,547.87 Z" fill="rgb(223,162,178)"/>
<path d="M 579.13 684.51 C563.73,685.63 545.84,686.00 515.13,685.85 C471.77,685.62 458.39,685.10 445.00,683.12 C440.88,682.51 434.35,681.55 430.50,680.99 C421.76,679.73 414.26,677.12 413.47,675.07 C411.65,670.32 425.88,666.83 459.00,663.93 C480.83,662.01 487.75,661.84 522.50,662.36 C564.11,662.98 586.01,664.16 600.49,666.58 C610.94,668.33 619.71,670.73 620.55,672.07 C621.78,674.08 619.73,676.95 615.70,678.85 C609.56,681.75 602.98,682.77 579.13,684.51 ZM 555.04 678.57 C561.34,677.79 567.85,676.63 569.50,676.00 C572.27,674.94 572.36,674.75 570.72,673.54 C566.54,670.48 553.09,669.50 515.00,669.50 C478.14,669.50 469.42,670.12 465.00,673.05 C462.35,674.80 466.42,676.72 475.31,677.91 C492.20,680.19 538.93,680.58 555.04,678.57 ZM 561.43 385.11 C560.72,386.26 560.52,386.22 554.00,383.86 C550.97,382.76 545.38,381.06 541.57,380.07 C535.85,378.58 534.62,377.89 534.49,376.13 C534.40,374.96 534.69,374.00 535.12,374.00 C536.29,374.00 554.55,380.69 558.52,382.58 C560.43,383.48 561.73,384.62 561.43,385.11 ZM 571.38 372.80 C572.70,374.95 570.28,374.55 560.80,371.07 C552.55,368.03 551.15,367.20 551.44,365.50 C551.62,364.40 552.39,363.65 553.14,363.83 C555.95,364.50 570.75,371.78 571.38,372.80 ZM 632.41 512.27 C632.93,507.95 633.36,503.55 633.56,500.25 C633.95,494.00 634.04,491.14 633.71,489.89 C634.05,491.14 633.96,494.00 633.59,500.25 C633.22,506.44 632.69,512.70 632.40,514.17 C632.00,516.21 632.25,516.79 633.45,516.61 C634.88,516.40 635.73,515.90 636.40,514.09 C635.28,519.10 633.93,524.39 632.73,528.51 C631.38,532.88 630.19,536.00 629.84,536.00 C628.68,536.00 628.73,535.35 631.03,522.31 C631.79,517.99 632.25,514.69 632.41,512.27 ZM 650.47 526.09 C650.21,526.99 649.87,528.07 649.48,529.26 C646.59,537.40 644.42,542.90 643.76,543.74 C643.32,544.29 642.96,544.63 642.68,544.74 C641.62,545.13 641.87,542.06 643.43,535.26 C643.47,535.09 643.51,534.92 643.56,534.76 C644.56,530.81 645.35,527.43 645.93,524.61 C645.39,528.10 644.99,530.97 645.00,531.66 C645.00,532.30 645.76,532.71 646.69,532.58 C647.83,532.41 649.09,530.23 650.47,526.09 ZM 637.13 482.07 C635.44,481.17 635.07,481.35 634.71,483.25 C634.43,484.67 634.22,484.13 634.14,481.81 C633.96,476.97 635.51,476.15 637.52,480.03 C639.08,483.05 639.06,483.11 637.13,482.07 ZM 647.08 517.50 C647.08,517.46 647.09,517.41 647.09,517.37 C647.31,515.92 647.48,514.65 647.56,513.66 C648.05,508.05 647.99,506.49 646.42,503.43 C647.62,505.39 648.70,506.68 649.04,506.48 C649.83,505.99 651.01,508.33 650.98,510.33 C650.98,511.01 650.58,510.89 650.04,510.03 C649.53,509.22 648.93,508.77 648.72,509.03 C648.54,509.24 647.83,513.05 647.08,517.50 ZM 640.11 496.08 C639.65,496.55 639.03,499.30 638.34,504.00 C638.19,505.03 638.00,506.16 637.78,507.35 C637.89,506.54 638.02,505.66 638.14,504.69 C638.98,498.40 639.48,496.07 640.11,496.08 ZM 644.43 499.98 C643.47,498.54 642.61,497.56 642.18,497.47 C642.20,497.46 642.23,497.44 642.25,497.42 C642.48,497.19 643.36,498.26 644.43,499.98 ZM 641.98 497.51 C641.55,497.72 640.92,497.22 640.52,496.37 C640.54,496.39 640.56,496.41 640.57,496.43 C641.05,497.08 641.61,497.50 641.98,497.51 ZM 652.75 521.37 C652.44,521.30 652.10,521.42 651.81,521.68 C652.06,521.10 652.39,521.02 652.75,521.37 ZM 654.98 527.52 C654.95,527.36 654.91,527.19 654.88,527.03 C654.92,527.22 654.96,527.41 655.01,527.60 C655.00,527.58 654.99,527.55 654.98,527.52 Z" fill="rgb(226,226,219)"/>
<path d="M 0.00 0.00 L 1024.00 0.00 L 1024.00 1024.00 L 0.00 1024.00 ZM 380.17 432.51 C379.64,433.76 378.91,435.42 378.10,437.18 C377.06,439.45 376.15,441.56 375.38,443.50 C373.58,447.82 372.82,450.32 372.03,454.00 C371.50,456.48 370.39,461.42 369.56,465.00 C367.43,474.29 365.86,497.49 366.61,508.82 C366.83,512.30 367.44,516.72 368.28,521.45 C368.25,521.43 368.24,521.43 368.23,521.44 C367.89,521.77 369.39,528.36 371.19,535.21 C372.48,540.45 373.90,545.32 375.26,548.95 L 375.26 548.95 L 375.29 549.04 L 375.32 549.11 C375.39,549.30 375.47,549.50 375.54,549.70 C375.73,550.19 375.92,550.67 376.11,551.15 C380.70,562.58 386.19,572.54 392.74,581.76 C398.61,590.35 409.70,602.79 418.63,609.99 C418.87,610.17 419.10,610.36 419.34,610.55 C419.65,610.85 420.04,611.18 420.50,611.57 C423.04,613.71 426.27,616.05 429.90,618.43 C431.00,619.18 432.11,619.92 433.22,620.64 C441.42,625.90 449.13,630.05 457.26,633.40 L 457.27 633.40 C459.42,634.31 461.59,635.16 463.79,635.97 C465.31,636.53 466.51,636.98 467.58,637.31 C475.25,639.89 483.99,641.82 497.50,643.95 C503.55,644.90 515.59,644.86 526.50,644.12 C528.09,644.40 533.36,643.84 539.59,642.76 C540.93,642.55 542.17,642.33 543.27,642.10 C543.82,641.98 544.37,641.86 544.92,641.74 C545.23,641.68 545.53,641.61 545.84,641.55 C560.85,638.36 576.02,632.24 589.81,623.84 C596.17,620.00 602.22,615.69 607.93,610.93 C614.00,606.03 619.08,601.39 619.89,599.76 C621.83,597.73 623.72,595.65 625.56,593.50 C625.90,593.15 626.16,592.85 626.32,592.61 C633.59,583.96 639.98,574.40 645.36,564.00 C648.05,558.78 650.63,552.95 652.59,547.87 C654.64,542.53 656.02,537.99 656.12,535.82 C656.13,535.50 656.11,535.07 656.07,534.56 C656.05,533.73 655.99,532.89 655.90,532.07 C656.91,533.90 657.98,531.05 659.42,522.79 C663.10,501.67 662.41,480.38 657.40,460.61 C650.15,431.99 638.14,410.81 617.64,390.44 C604.12,377.01 594.97,370.49 578.50,362.53 C563.00,355.05 559.26,353.84 551.63,354.83 C555.41,354.12 556.12,353.79 555.72,353.39 C555.43,353.10 551.22,351.98 546.35,350.89 C544.71,350.52 542.68,350.18 540.38,349.88 C535.73,349.13 529.72,348.66 521.63,348.37 C513.57,348.02 505.35,347.99 499.19,348.36 C498.01,348.30 495.69,348.48 492.85,348.98 C492.21,349.09 491.59,349.20 490.99,349.31 C489.52,349.55 488.08,349.81 486.66,350.07 C471.39,352.46 457.59,357.18 444.00,364.58 C441.41,366.06 438.71,367.61 436.06,369.24 C434.79,370.02 433.53,370.83 432.27,371.66 C429.90,373.23 427.07,375.39 424.04,377.90 C420.40,380.85 416.76,384.08 413.04,387.64 C412.78,387.89 412.51,388.15 412.25,388.40 C406.57,393.66 401.83,398.45 400.92,400.14 C400.90,400.18 400.88,400.23 400.86,400.27 C399.25,402.10 397.84,403.81 396.70,405.34 C395.82,406.52 394.76,408.03 393.60,409.72 C389.45,415.35 385.90,420.91 383.19,426.08 C381.85,428.36 381.00,429.97 381.00,430.32 C381.00,430.44 380.79,430.99 380.45,431.84 L 380.45 431.84 C380.35,432.07 380.26,432.29 380.17,432.51 ZM 403.89 525.75 C404.00,525.46 404.11,524.69 404.23,523.53 C404.81,522.18 404.99,518.99 405.05,511.28 C405.15,508.84 405.23,506.09 405.31,503.00 C405.58,492.56 406.11,484.14 407.01,477.23 L 407.01 477.21 C408.10,468.96 409.73,462.84 412.12,457.95 C414.01,454.68 416.47,451.23 418.71,448.92 C418.96,448.67 419.23,448.42 419.50,448.18 L 421.82 446.05 L 422.96 445.03 C423.00,445.01 423.04,445.00 423.06,445.00 C423.42,445.00 424.02,450.51 424.40,457.25 C425.44,475.84 427.12,480.58 432.39,479.79 C437.14,479.07 440.36,469.67 443.96,446.00 C447.23,424.53 451.49,413.77 461.81,400.88 C469.23,391.60 479.55,381.72 486.53,377.18 C486.79,377.03 487.04,376.87 487.30,376.71 C487.77,376.41 488.22,376.13 488.67,375.85 C487.13,376.89 486.00,377.83 486.00,378.23 C486.00,379.28 492.83,382.61 497.51,383.84 C499.70,384.42 507.06,385.60 513.87,386.47 C536.56,389.37 555.09,394.90 561.51,400.69 C564.44,403.33 568.00,408.10 568.00,409.38 C568.00,410.16 563.08,410.50 551.92,410.50 C537.15,410.50 535.73,410.66 534.42,412.45 C532.69,414.81 533.46,417.89 536.36,420.23 C539.68,422.90 551.95,426.67 569.78,430.48 C592.21,435.28 600.37,439.05 614.20,450.97 C624.05,459.46 625.40,461.41 624.09,465.17 C623.06,468.14 622.76,477.23 623.27,481.82 C623.04,480.48 622.84,478.77 622.75,477.00 C622.55,473.42 622.30,478.74 622.19,488.81 C622.11,497.09 621.70,506.31 621.22,511.53 C620.98,512.99 620.74,514.64 620.48,516.50 C620.44,516.80 620.40,517.10 620.35,517.40 C619.23,523.03 617.29,529.68 615.63,533.60 C615.33,534.10 615.02,534.63 614.71,535.17 C613.55,537.18 611.19,540.10 608.93,542.42 C606.80,544.45 604.75,546.00 603.87,546.00 C602.14,546.00 602.00,545.04 601.98,533.25 C601.94,514.53 600.15,508.99 594.60,510.39 C589.73,511.61 586.93,520.30 582.98,546.50 C581.82,554.20 579.62,564.19 578.08,568.69 C573.23,582.88 563.23,596.74 549.34,608.53 L 544.85 612.33 C544.77,612.38 544.69,612.44 544.61,612.49 C543.22,613.54 542.52,613.65 540.24,612.43 C539.99,612.28 539.75,612.12 539.50,611.98 L 539.41 611.91 C535.70,609.45 530.97,608.17 523.10,607.55 L 522.85 607.52 C520.54,607.21 518.32,606.89 516.17,606.58 C508.14,605.39 501.21,604.13 495.17,602.77 C485.61,600.62 478.26,598.19 472.32,595.28 L 472.32 595.28 L 472.28 595.26 C472.18,595.21 472.07,595.16 471.97,595.10 C468.93,593.51 464.29,589.66 461.20,586.47 C459.86,584.96 459.00,583.65 459.00,582.89 C459.00,582.05 462.18,581.92 470.75,582.38 C483.85,583.10 489.63,582.17 492.25,578.94 C494.54,576.12 494.46,575.37 491.63,572.54 C490.31,571.22 487.34,569.77 483.07,568.31 L 483.03 568.30 C477.32,566.35 469.30,564.36 459.79,562.61 C459.66,562.58 459.54,562.56 459.41,562.54 C453.56,561.44 446.41,559.70 441.57,558.21 C436.48,556.48 432.11,554.34 426.82,551.23 C418.91,546.57 407.60,537.05 404.05,532.07 C402.46,529.84 402.22,529.12 403.02,527.23 C403.36,526.84 403.68,526.32 403.89,525.75 ZM 579.13 684.51 C602.98,682.77 609.56,681.75 615.70,678.85 C619.73,676.95 621.78,674.08 620.55,672.07 C619.71,670.73 610.94,668.33 600.49,666.58 C586.01,664.16 564.11,662.98 522.50,662.36 C487.75,661.84 480.83,662.01 459.00,663.93 C425.88,666.83 411.65,670.32 413.47,675.07 C414.26,677.12 421.76,679.73 430.50,680.99 C434.35,681.55 440.88,682.51 445.00,683.12 C458.39,685.10 471.77,685.62 515.13,685.85 C545.84,686.00 563.73,685.63 579.13,684.51 ZM 394.23 465.15 C395.87,459.91 397.66,455.18 398.26,455.01 C398.36,455.02 398.46,455.06 398.54,455.12 C398.88,455.50 398.94,456.72 398.66,458.25 C398.49,459.19 398.14,461.09 397.72,463.36 C397.63,463.77 397.54,464.19 397.43,464.63 C397.26,465.38 397.06,466.52 396.84,467.94 C396.79,468.30 396.73,468.67 396.68,469.05 L 396.50 470.00 C395.91,473.24 395.42,477.91 395.07,483.04 C394.74,486.42 394.42,489.96 394.15,493.44 L 392.44 515.50 L 389.63 511.13 C387.00,507.03 386.86,506.32 387.50,499.63 C387.65,498.11 387.85,496.45 388.09,494.70 C389.63,484.63 392.06,473.16 394.23,465.15 ZM 510.47 622.32 C509.25,622.08 507.89,621.78 506.45,621.44 C501.27,620.23 494.82,618.47 489.46,616.81 L 489.45 616.81 C488.58,616.54 487.76,616.27 487.00,616.01 C468.65,609.76 458.72,603.99 475.00,609.03 C475.96,609.32 477.04,609.64 478.21,609.96 L 478.21 609.97 L 478.22 609.97 C479.86,610.43 481.68,610.91 483.63,611.40 C489.77,613.04 502.09,615.75 513.50,617.91 C518.11,618.78 521.61,619.37 524.42,619.66 L 530.25 620.65 L 526.57 622.83 C524.54,624.02 522.80,624.97 522.69,624.93 C522.68,624.93 522.51,624.89 522.23,624.83 L 522.44 624.72 ZM 467.50 621.54 L 467.63 621.59 C471.98,623.17 479.56,625.49 486.21,627.30 C489.82,628.33 492.90,629.15 494.80,629.55 C495.26,629.65 495.72,629.75 496.16,629.85 L 498.72 630.49 C501.13,631.15 502.59,631.75 502.30,632.02 C501.38,632.84 492.75,635.03 490.81,634.94 C490.40,634.92 488.46,634.22 485.75,633.14 C484.64,632.64 483.04,631.98 480.88,631.10 C480.14,630.80 479.41,630.50 478.67,630.19 L 478.50 630.12 C475.11,628.65 472.15,627.34 469.58,626.16 C463.30,623.21 458.29,620.49 457.21,619.35 C457.07,619.17 457.00,619.01 457.00,618.88 C457.00,618.24 457.74,618.07 458.75,618.47 C460.85,619.29 463.95,620.37 467.50,621.54 ZM 637.13 482.07 C638.97,483.05 639.07,483.05 637.74,480.47 C637.92,480.75 638.09,481.04 638.26,481.35 C640.01,484.48 640.58,486.79 640.29,489.58 C639.99,492.57 640.25,495.36 640.82,496.74 C640.73,496.64 640.65,496.54 640.57,496.43 C640.56,496.41 640.54,496.39 640.52,496.37 C640.50,496.33 640.49,496.29 640.47,496.24 C640.36,496.00 640.24,495.94 640.11,496.08 C639.48,496.07 638.98,498.40 638.14,504.69 C638.02,505.66 637.89,506.54 637.78,507.35 C637.40,509.44 636.92,511.73 636.40,514.09 C635.73,515.90 634.88,516.40 633.45,516.61 C632.25,516.79 632.00,516.21 632.40,514.17 C632.69,512.70 633.22,506.44 633.59,500.25 C633.96,494.00 634.05,491.14 633.71,489.90 C633.52,489.19 633.20,489.00 632.71,489.00 C631.86,489.00 630.98,489.56 630.75,490.24 C630.98,489.56 631.80,489.00 632.58,489.00 C633.63,489.00 634.00,487.59 634.00,483.56 C634.00,482.56 634.05,481.59 634.13,480.73 C634.12,481.07 634.12,481.42 634.14,481.81 C634.22,484.13 634.43,484.67 634.71,483.25 C635.07,481.35 635.44,481.17 637.13,482.07 ZM 508.36 365.97 C507.52,366.44 507.00,366.82 507.00,367.04 C507.00,367.49 509.59,368.36 512.75,368.97 C519.96,370.36 527.67,372.24 534.77,374.24 C534.55,374.60 534.43,375.31 534.49,376.13 C534.62,377.89 535.85,378.58 541.57,380.07 C544.01,380.70 547.17,381.62 549.93,382.50 C544.39,380.81 533.54,378.27 524.51,376.56 C514.60,374.69 504.70,372.81 502.50,372.38 C500.30,371.94 497.63,371.69 496.57,371.81 C496.25,371.85 495.81,371.99 495.28,372.20 C498.28,370.68 502.24,368.81 508.36,365.97 ZM 382.52 462.81 L 382.47 463.00 C381.68,465.78 381.10,468.53 380.72,471.18 C380.40,472.89 380.11,474.57 379.87,476.17 C379.04,480.65 378.21,484.00 377.90,484.00 C377.53,484.00 376.73,482.00 376.12,479.56 C374.78,474.23 374.67,468.76 375.88,467.45 C375.99,467.33 376.14,467.08 376.32,466.72 C376.91,465.82 377.47,464.40 377.92,462.73 C378.12,462.17 378.31,461.59 378.50,461.00 C378.69,460.39 378.89,459.80 379.08,459.21 C379.63,457.60 380.15,456.12 380.65,454.78 L 380.65 454.78 C382.28,450.46 383.83,447.16 384.71,446.25 C385.17,446.21 385.52,446.24 385.69,446.36 C385.80,446.55 385.87,446.80 385.91,447.11 C385.98,448.56 385.35,451.96 384.14,456.76 C384.10,456.89 384.06,457.03 384.02,457.16 C383.66,458.31 383.24,459.89 382.80,461.70 L 382.80 461.70 C382.71,462.07 382.61,462.43 382.52,462.81 ZM 533.03 358.17 L 533.03 358.17 C536.09,357.51 539.26,356.92 542.50,356.39 C538.59,357.32 539.78,358.08 544.61,360.01 C547.57,361.19 551.42,362.86 555.25,364.58 C554.32,364.20 553.58,363.93 553.14,363.83 C552.39,363.65 551.62,364.40 551.44,365.50 C551.20,366.89 552.10,367.70 556.93,369.60 C550.37,367.33 541.84,364.83 537.06,363.81 C531.80,362.69 526.83,361.53 526.00,361.24 C525.19,360.95 523.44,360.82 522.08,360.95 C525.51,359.96 529.24,359.01 533.03,358.17 ZM 650.47 526.09 C649.09,530.23 647.83,532.41 646.69,532.58 C645.76,532.71 645.00,532.30 645.00,531.66 C644.99,530.97 645.39,528.10 645.93,524.61 C646.55,521.60 646.94,519.23 647.08,517.50 C647.83,513.05 648.54,509.24 648.72,509.03 C648.93,508.77 649.53,509.22 650.04,510.03 C650.58,510.89 650.98,511.01 650.98,510.33 C650.99,510.21 650.98,510.09 650.98,509.96 C651.67,512.22 652.30,515.15 652.48,517.50 C652.57,518.67 652.91,520.32 653.32,521.74 C653.15,521.53 652.96,521.41 652.75,521.37 C652.39,521.02 652.06,521.10 651.81,521.68 C651.35,522.09 651.00,522.83 651.00,523.74 C651.00,524.10 650.80,524.95 650.47,526.09 ZM 546.08 377.69 C551.96,379.65 556.70,381.52 559.30,382.98 C559.06,382.84 558.80,382.71 558.52,382.58 C556.58,381.65 551.19,379.57 546.08,377.69 ZM 571.38 372.80 C571.09,372.33 567.79,370.53 564.04,368.66 C567.50,370.33 570.09,371.66 570.67,372.14 C571.72,373.01 572.06,373.56 571.70,373.77 C571.75,373.55 571.64,373.22 571.38,372.80 ZM 624.35 484.84 C624.73,485.36 625.00,486.24 625.00,487.08 C625.00,488.07 625.88,489.13 626.96,489.89 C625.88,489.16 625.00,488.16 625.00,487.22 C625.00,486.42 624.73,485.46 624.35,484.84 ZM 654.96 527.39 C654.93,527.27 654.91,527.15 654.88,527.03 C654.71,526.22 654.53,525.44 654.36,524.74 C654.65,525.69 654.87,526.66 654.96,527.39 ZM 561.43 385.11 C561.69,384.70 560.80,383.82 559.37,383.02 C561.14,384.01 561.89,384.81 561.31,385.29 C561.35,385.24 561.39,385.18 561.43,385.11 ZM 649.24 506.41 C649.17,506.42 649.10,506.44 649.04,506.48 C648.70,506.68 647.62,505.39 646.42,503.43 L 646.41 503.41 C647.62,505.37 648.73,506.66 649.10,506.44 C649.14,506.41 649.19,506.40 649.24,506.41 ZM 634.58 478.13 C634.68,477.83 634.80,477.63 634.91,477.55 C635.00,477.50 635.13,477.51 635.28,477.58 C635.01,477.59 634.77,477.77 634.58,478.13 Z" fill="rgb(244,244,238)"/>
<path d="M 655.63 531.49 C655.28,530.58 655.00,529.00 655.00,527.98 C655.00,526.96 654.49,524.86 653.86,523.32 C653.23,521.77 652.61,519.15 652.48,517.50 C652.12,512.82 649.99,505.89 649.10,506.44 C648.65,506.72 647.06,504.70 645.57,501.96 C644.08,499.21 642.45,497.22 641.96,497.53 C640.69,498.31 639.82,494.17 640.29,489.58 C640.58,486.79 640.01,484.48 638.26,481.35 C636.92,478.95 635.41,477.24 634.91,477.55 C634.41,477.86 634.00,480.57 634.00,483.56 C634.00,487.59 633.63,489.00 632.58,489.00 C631.80,489.00 630.98,489.56 630.75,490.24 C630.08,492.25 625.00,489.45 625.00,487.08 C625.00,486.00 624.55,484.84 624.00,484.50 C622.65,483.67 622.72,469.09 624.09,465.17 C625.40,461.41 624.05,459.46 614.20,450.97 C600.37,439.05 592.21,435.28 569.78,430.48 C551.95,426.67 539.68,422.90 536.36,420.23 C533.46,417.89 532.69,414.81 534.42,412.45 C535.73,410.66 537.15,410.50 551.92,410.50 C563.08,410.50 568.00,410.16 568.00,409.38 C568.00,408.10 564.44,403.33 561.51,400.69 C555.09,394.90 536.56,389.37 513.87,386.47 C507.06,385.60 499.70,384.42 497.51,383.84 C492.83,382.61 486.00,379.28 486.00,378.23 C486.00,377.14 494.35,372.07 496.57,371.81 C497.63,371.69 500.30,371.94 502.50,372.38 C504.70,372.81 514.60,374.69 524.51,376.56 C534.41,378.43 546.51,381.31 551.39,382.96 C556.26,384.61 560.68,385.70 561.20,385.38 C564.77,383.17 536.15,373.47 512.75,368.97 C509.59,368.36 507.00,367.49 507.00,367.04 C507.00,366.01 518.62,361.30 522.00,360.96 C523.38,360.82 525.17,360.94 526.00,361.24 C526.83,361.53 531.80,362.69 537.06,363.81 C542.32,364.93 552.13,367.85 558.84,370.28 C570.00,374.33 574.08,374.97 570.67,372.14 C569.14,370.87 553.16,363.43 544.61,360.01 C537.80,357.29 538.23,356.89 549.94,355.08 C558.78,353.70 561.90,354.52 578.50,362.53 C594.97,370.49 604.12,377.01 617.64,390.44 C638.14,410.81 650.15,431.99 657.40,460.61 C662.41,480.38 663.10,501.67 659.42,522.79 C657.86,531.77 656.73,534.35 655.63,531.49 Z" fill="rgb(249,170,106)"/>
<path d="M 655.63 531.49 C655.28,530.58 655.00,529.00 655.00,527.98 C655.00,526.96 654.49,524.86 653.86,523.32 C653.23,521.77 652.61,519.15 652.48,517.50 C652.09,512.51 649.97,505.90 648.95,506.53 C648.42,506.86 648.00,505.55 648.00,503.53 C648.00,500.10 644.24,491.18 641.46,488.00 C640.73,487.17 640.18,486.27 640.22,486.00 C640.44,484.54 635.78,477.02 634.96,477.52 C634.43,477.85 634.00,477.19 634.00,476.06 C634.00,473.29 627.06,463.76 625.48,464.37 C624.69,464.67 624.39,464.22 624.67,463.14 C625.37,460.48 612.60,448.47 602.00,441.82 C593.30,436.36 587.18,434.21 569.78,430.48 C551.95,426.67 539.68,422.90 536.36,420.23 C533.46,417.89 532.69,414.81 534.42,412.45 C535.74,410.64 537.06,410.51 552.67,410.65 C582.64,410.92 601.93,416.46 622.98,430.83 C634.47,438.67 634.91,434.94 623.87,423.34 C620.64,419.95 618.00,416.68 618.00,416.09 C618.00,414.41 625.76,414.80 628.53,416.61 C630.11,417.65 631.92,417.99 633.60,417.56 C635.76,417.02 636.13,416.46 635.73,414.36 C635.32,412.23 635.46,412.03 636.58,413.16 C639.33,415.92 647.17,430.84 650.94,440.50 C661.55,467.64 664.33,494.65 659.42,522.79 C657.86,531.77 656.73,534.35 655.63,531.49 ZM 606.75 411.78 C604.69,410.58 603.00,409.25 603.00,408.82 C603.00,407.24 608.09,406.82 612.98,408.00 C618.55,409.33 619.58,411.45 615.43,413.02 C611.87,414.38 611.02,414.26 606.75,411.78 ZM 633.00 409.50 C632.32,408.67 631.14,408.00 630.38,408.00 C629.62,408.00 628.97,407.66 628.92,407.25 C628.61,404.20 627.85,402.47 625.90,400.39 C624.66,399.08 624.13,398.00 624.70,398.00 C625.62,398.00 632.43,406.24 634.41,409.75 C635.39,411.48 634.51,411.32 633.00,409.50 Z" fill="rgb(252,198,124)"/>
<path d="M 655.63 531.49 C655.28,530.58 655.00,529.00 655.00,527.98 C655.00,526.96 654.49,524.86 653.86,523.32 C653.23,521.77 652.61,519.15 652.48,517.50 C652.09,512.51 649.97,505.90 648.95,506.53 C648.42,506.86 648.00,505.55 648.00,503.53 C648.00,500.10 644.24,491.18 641.46,488.00 C640.73,487.17 640.18,486.27 640.22,486.00 C640.44,484.54 635.78,477.02 634.96,477.52 C634.43,477.85 634.00,477.19 634.00,476.06 C634.00,473.29 627.06,463.76 625.48,464.37 C624.69,464.67 624.39,464.22 624.67,463.14 C625.37,460.48 612.60,448.47 602.00,441.82 C593.30,436.36 587.18,434.21 569.78,430.48 C551.85,426.65 542.19,423.77 537.25,420.79 C532.20,417.75 533.42,417.02 538.96,419.76 C543.21,421.86 544.39,422.06 547.08,421.12 C549.95,420.12 550.46,420.28 552.99,422.99 C554.52,424.63 556.87,426.38 558.21,426.89 C561.06,427.97 572.20,426.88 574.16,425.33 C574.90,424.75 578.82,424.01 582.87,423.68 C586.92,423.36 590.50,422.83 590.83,422.50 C591.16,422.18 590.88,421.03 590.20,419.95 C589.12,418.22 589.25,418.00 591.42,418.00 C594.06,418.00 606.00,423.90 606.00,425.21 C606.00,425.64 605.13,426.00 604.06,426.00 C601.28,426.00 600.38,428.07 602.49,429.61 C603.82,430.59 604.79,430.65 606.29,429.85 C611.70,426.95 625.75,432.76 635.30,441.86 C638.56,444.96 644.61,452.11 648.75,457.75 C655.97,467.58 657.93,469.47 658.06,466.75 C658.25,462.99 660.07,471.38 661.08,480.71 C662.39,492.82 661.73,509.58 659.40,522.90 C657.85,531.78 656.73,534.34 655.63,531.49 ZM 598.60 433.50 C595.93,431.37 593.00,431.11 593.00,433.00 C593.00,433.97 600.31,436.99 601.00,436.31 C601.28,436.04 600.19,434.78 598.60,433.50 ZM 533.00 415.19 C533.00,414.75 533.64,413.51 534.42,412.44 C535.66,410.74 537.34,410.46 548.01,410.16 C554.70,409.98 561.38,410.17 562.84,410.58 L 565.50 411.32 L 562.50 411.93 C560.85,412.26 556.69,412.11 553.26,411.60 C546.31,410.57 536.50,412.26 535.58,414.65 C535.02,416.10 533.00,416.53 533.00,415.19 Z" fill="rgb(251,213,143)"/>
</g>
</svg>