<svg width="344" height="348" viewBox="0 0 344 348" fill="none" xmlns="http://www.w3.org/2000/svg">
<g filter="url(#filter0_d_1_32)">
<rect x="17" y="3" width="306" height="310" rx="8" fill="white"/>
<g clip-path="url(#clip0_1_32)">
<path d="M51.1831 31.175L47.3581 35L51.1831 38.825L49.9998 40L44.9998 35L49.9998 30L51.1831 31.175Z" fill="#B5BEC6"/>
<path d="M122.347 28.9C121.591 28.186 120.457 27.836 119.463 27.836C117.671 27.836 115.837 28.732 115.837 30.748C115.837 32.596 117.139 33.184 118.343 33.562C119.589 33.954 120.625 34.248 120.625 35.284C120.625 36.348 119.659 36.754 118.833 36.754C118.049 36.754 117.153 36.334 116.663 35.662L115.403 36.838C116.187 37.762 117.517 38.252 118.805 38.252C120.751 38.252 122.417 37.216 122.417 35.088C122.417 33.142 120.793 32.582 119.519 32.19C118.399 31.84 117.629 31.574 117.629 30.664C117.629 29.698 118.567 29.306 119.379 29.306C120.079 29.306 120.821 29.67 121.199 30.16L122.347 28.9ZM125.388 33.968C125.458 33.03 126.256 32.344 127.25 32.344C128.342 32.344 128.832 33.1 128.832 33.968H125.388ZM130.512 34.724C130.512 32.302 129.14 31.084 127.264 31.084C125.234 31.084 123.708 32.512 123.708 34.682C123.708 36.866 125.248 38.196 127.32 38.196C128.594 38.196 129.546 37.748 130.204 36.852L129.084 35.956C128.706 36.488 128.146 36.824 127.306 36.824C126.326 36.824 125.458 36.124 125.388 35.172H130.498C130.512 35.018 130.512 34.878 130.512 34.724ZM132.139 31.28V41.36H133.819V37.104H133.847C134.281 37.776 135.135 38.196 136.073 38.196C138.117 38.196 139.377 36.572 139.377 34.612C139.377 32.624 138.033 31.084 136.115 31.084C134.883 31.084 134.127 31.686 133.791 32.218H133.749V31.28H132.139ZM137.669 34.612C137.669 35.662 137.039 36.796 135.737 36.796C134.505 36.796 133.763 35.69 133.763 34.64C133.763 33.59 134.505 32.456 135.737 32.456C137.039 32.456 137.669 33.562 137.669 34.612ZM141.208 32.624V35.76C141.208 37.048 141.614 38.14 143.392 38.14C143.77 38.14 144.218 38.07 144.512 37.958L144.456 36.642C144.26 36.74 143.966 36.782 143.742 36.782C143 36.782 142.86 36.348 142.86 35.746V32.624H144.54V31.28H142.86V29.334H141.208V31.28H140.032V32.624H141.208ZM147.044 33.968C147.114 33.03 147.912 32.344 148.906 32.344C149.998 32.344 150.488 33.1 150.488 33.968H147.044ZM152.168 34.724C152.168 32.302 150.796 31.084 148.92 31.084C146.89 31.084 145.364 32.512 145.364 34.682C145.364 36.866 146.904 38.196 148.976 38.196C150.25 38.196 151.202 37.748 151.86 36.852L150.74 35.956C150.362 36.488 149.802 36.824 148.962 36.824C147.982 36.824 147.114 36.124 147.044 35.172H152.154C152.168 35.018 152.168 34.878 152.168 34.724ZM161.817 31.084C160.809 31.084 160.053 31.546 159.605 32.358C159.227 31.602 158.541 31.084 157.505 31.084C156.427 31.084 155.713 31.7 155.419 32.358H155.391V31.28H153.795V38H155.475V34.304C155.475 33.408 155.937 32.484 156.945 32.484C157.799 32.484 158.191 33.114 158.191 33.94V38H159.871V34.332C159.871 33.464 160.305 32.484 161.355 32.484C162.433 32.484 162.615 33.478 162.615 34.276V38H164.295V33.8C164.295 32.428 163.567 31.084 161.817 31.084ZM166.278 27.416V38H167.874V36.992H167.902C168.364 37.762 169.274 38.196 170.212 38.196C172.256 38.196 173.516 36.572 173.516 34.612C173.516 32.624 172.172 31.084 170.254 31.084C169.022 31.084 168.35 31.7 168 32.134H167.958V27.416H166.278ZM171.808 34.612C171.808 35.662 171.178 36.796 169.876 36.796C168.644 36.796 167.902 35.69 167.902 34.64C167.902 33.59 168.644 32.456 169.876 32.456C171.178 32.456 171.808 33.562 171.808 34.612ZM176.425 33.968C176.495 33.03 177.293 32.344 178.287 32.344C179.379 32.344 179.869 33.1 179.869 33.968H176.425ZM181.549 34.724C181.549 32.302 180.177 31.084 178.301 31.084C176.271 31.084 174.745 32.512 174.745 34.682C174.745 36.866 176.285 38.196 178.357 38.196C179.631 38.196 180.583 37.748 181.241 36.852L180.121 35.956C179.743 36.488 179.183 36.824 178.343 36.824C177.363 36.824 176.495 36.124 176.425 35.172H181.535C181.549 35.018 181.549 34.878 181.549 34.724ZM183.176 38H184.856V34.402C184.856 33.912 185.15 32.596 186.662 32.596C186.816 32.596 186.956 32.61 187.18 32.666V31.126C187.068 31.098 186.9 31.084 186.774 31.084C185.892 31.084 185.178 31.63 184.814 32.4H184.786V31.28H183.176V38ZM191.734 38H198.328V36.46H193.862L196.718 33.73C197.6 32.89 198.314 32.008 198.314 30.734C198.314 28.83 196.732 27.836 195.01 27.836C193.19 27.836 191.86 29.04 191.664 30.678L193.302 30.93C193.428 29.964 194.03 29.236 194.982 29.236C195.878 29.236 196.564 29.838 196.564 30.762C196.564 31.532 196.172 32.106 195.556 32.708L191.734 36.46V38ZM207.083 33.044C207.083 29.838 205.837 27.836 203.597 27.836C201.343 27.836 200.083 29.838 200.083 33.044C200.083 36.25 201.343 38.252 203.597 38.252C205.837 38.252 207.083 36.25 207.083 33.044ZM205.361 33.044C205.361 34.43 205.095 36.824 203.597 36.824C202.085 36.824 201.805 34.43 201.805 33.044C201.805 31.658 202.085 29.236 203.597 29.236C205.095 29.236 205.361 31.658 205.361 33.044ZM208.823 38H215.417V36.46H210.951L213.807 33.73C214.689 32.89 215.403 32.008 215.403 30.734C215.403 28.83 213.821 27.836 212.099 27.836C210.279 27.836 208.949 29.04 208.753 30.678L210.391 30.93C210.517 29.964 211.119 29.236 212.071 29.236C212.967 29.236 213.653 29.838 213.653 30.762C213.653 31.532 213.261 32.106 212.645 32.708L208.823 36.46V38ZM220.308 38H221.988V28.088H220.462L217.368 30.58L218.348 31.742L220.308 30.132V38Z" fill="#4A5660"/>
<path d="M288 38.825L291.825 35L288 31.175L289.183 30L294.183 35L289.183 40L288 38.825Z" fill="#B5BEC6"/>
</g>
<path d="M49.4073 71.5C48.8673 70.99 48.0573 70.74 47.3473 70.74C46.0673 70.74 44.7573 71.38 44.7573 72.82C44.7573 74.14 45.6873 74.56 46.5473 74.83C47.4373 75.11 48.1773 75.32 48.1773 76.06C48.1773 76.82 47.4873 77.11 46.8973 77.11C46.3373 77.11 45.6973 76.81 45.3473 76.33L44.4473 77.17C45.0073 77.83 45.9573 78.18 46.8773 78.18C48.2673 78.18 49.4573 77.44 49.4573 75.92C49.4573 74.53 48.2973 74.13 47.3873 73.85C46.5873 73.6 46.0373 73.41 46.0373 72.76C46.0373 72.07 46.7073 71.79 47.2873 71.79C47.7873 71.79 48.3173 72.05 48.5873 72.4L49.4073 71.5ZM51.3595 78H52.7695L53.4095 76.38H56.4795L57.1395 78H58.5795L55.5295 70.92H54.4395L51.3595 78ZM53.8395 75.3L54.9495 72.42L56.0395 75.3H53.8395ZM60.78 78H62.04V72.53H62.06L65.42 78H67.02V70.92H65.76V76.22H65.74L62.45 70.92H60.78V78Z" fill="#B5BEC6"/>
<path d="M79.7859 78H80.9859V72.31H81.0059L83.1259 78H84.0059L86.1559 72.31H86.1759V78H87.4259V70.92H85.4459L83.6259 75.95H83.5959L81.7559 70.92H79.7859V78ZM90.1451 74.44C90.1451 76.65 91.7551 78.18 93.9351 78.18C96.1451 78.18 97.7551 76.65 97.7551 74.44C97.7551 72.17 96.1451 70.74 93.9351 70.74C91.7551 70.74 90.1451 72.17 90.1451 74.44ZM91.5151 74.44C91.5151 72.98 92.4851 71.85 93.9451 71.85C95.4151 71.85 96.3851 72.98 96.3851 74.44C96.3851 75.95 95.3951 77.05 93.9451 77.05C92.5051 77.05 91.5151 75.95 91.5151 74.44ZM100.471 78H101.731V72.53H101.751L105.111 78H106.711V70.92H105.451V76.22H105.431L102.141 70.92H100.471V78Z" fill="#B5BEC6"/>
<path d="M123.247 78H124.507V72.02H126.677V70.92H121.077V72.02H123.247V78ZM134.641 70.92H133.381V75.35C133.381 76.17 133.001 77.05 131.791 77.05C130.581 77.05 130.201 76.17 130.201 75.35V70.92H128.941V75.4C128.941 77.11 130.171 78.18 131.791 78.18C133.411 78.18 134.641 77.11 134.641 75.4V70.92ZM137.639 78H142.509V76.88H138.899V74.88H142.149V73.82H138.899V72.02H142.329V70.92H137.639V78Z" fill="#B5BEC6"/>
<path d="M158.74 78H159.96L161.62 72.69H161.64L163.3 78H164.52L166.59 70.92H165.25L163.85 76.12H163.83L162.3 70.92H161L159.44 76.12H159.42L158.05 70.92H156.67L158.74 78ZM168.929 78H173.799V76.88H170.189V74.88H173.439V73.82H170.189V72.02H173.619V70.92H168.929V78ZM176.533 78H179.043C180.893 78 182.953 76.94 182.953 74.46C182.953 71.8 180.893 70.92 179.043 70.92H176.533V78ZM177.793 76.9V72H178.843C180.143 72 181.603 72.43 181.603 74.46C181.603 76.37 180.143 76.9 178.843 76.9H177.793Z" fill="#B5BEC6"/>
<path d="M198.603 78H199.863V72.02H202.033V70.92H196.433V72.02H198.603V78ZM204.356 78H205.616V74.86H208.926V78H210.186V70.92H208.926V73.78H205.616V70.92H204.356V78ZM218.889 70.92H217.629V75.35C217.629 76.17 217.249 77.05 216.039 77.05C214.829 77.05 214.449 76.17 214.449 75.35V70.92H213.189V75.4C213.189 77.11 214.419 78.18 216.039 78.18C217.659 78.18 218.889 77.11 218.889 75.4V70.92Z" fill="#B5BEC6"/>
<path d="M237.858 78H239.118V75.02H242.238V73.96H239.118V72.02H242.428V70.92H237.858V78ZM245.091 78H246.351V75H247.271L248.911 78H250.431L248.541 74.86C249.531 74.64 250.161 73.97 250.161 72.95C250.161 71.45 248.881 70.92 247.551 70.92H245.091V78ZM246.351 73.97V71.98H247.491C248.141 71.98 248.901 72.17 248.901 72.94C248.901 73.8 248.091 73.97 247.381 73.97H246.351ZM252.88 78H254.14V70.92H252.88V78Z" fill="#B5BEC6"/>
<path d="M278.765 71.5C278.225 70.99 277.415 70.74 276.705 70.74C275.425 70.74 274.115 71.38 274.115 72.82C274.115 74.14 275.045 74.56 275.905 74.83C276.795 75.11 277.535 75.32 277.535 76.06C277.535 76.82 276.845 77.11 276.255 77.11C275.695 77.11 275.055 76.81 274.705 76.33L273.805 77.17C274.365 77.83 275.315 78.18 276.235 78.18C277.625 78.18 278.815 77.44 278.815 75.92C278.815 74.53 277.655 74.13 276.745 73.85C275.945 73.6 275.395 73.41 275.395 72.76C275.395 72.07 276.065 71.79 276.645 71.79C277.145 71.79 277.675 72.05 277.945 72.4L278.765 71.5ZM280.717 78H282.127L282.767 76.38H285.837L286.497 78H287.937L284.887 70.92H283.797L280.717 78ZM283.197 75.3L284.307 72.42L285.397 75.3H283.197ZM290.972 78H292.232V72.02H294.402V70.92H288.802V72.02H290.972V78Z" fill="#B5BEC6"/>
<path d="M55.5812 127.5H57.5012V116.172H55.7572L52.2212 119.02L53.3412 120.348L55.5812 118.508V127.5Z" fill="#4A5660"/>
<path d="M90.2212 127.5H97.7572V125.74H92.6532L95.9172 122.62C96.9252 121.66 97.7412 120.652 97.7412 119.196C97.7412 117.02 95.9332 115.884 93.9652 115.884C91.8852 115.884 90.3652 117.26 90.1412 119.132L92.0132 119.42C92.1572 118.316 92.8452 117.484 93.9332 117.484C94.9572 117.484 95.7412 118.172 95.7412 119.228C95.7412 120.108 95.2932 120.764 94.5892 121.452L90.2212 125.74V127.5Z" fill="#4A5660"/>
<path d="M130.509 122.364H130.989C132.189 122.364 133.741 122.812 133.741 124.284C133.741 125.644 132.653 126.156 131.661 126.156C130.461 126.156 129.677 125.452 129.405 124.556L127.613 125.116C128.221 127.004 129.821 127.788 131.725 127.788C133.645 127.788 135.677 126.652 135.677 124.3C135.677 122.908 134.717 121.852 133.341 121.58V121.548C134.573 121.244 135.373 120.204 135.373 118.988C135.373 116.956 133.709 115.884 131.725 115.884C129.917 115.884 128.429 116.956 128.029 118.476L129.837 118.94C130.061 118.076 130.717 117.484 131.645 117.484C132.605 117.484 133.437 118.092 133.437 119.116C133.437 120.508 132.157 120.828 131.021 120.828H130.509V122.364Z" fill="#4A5660"/>
<path d="M170.685 127.5H172.573V125.148H174.157V123.5H172.573V116.172H170.269L165.453 123.452V125.148H170.685V127.5ZM170.685 123.5H167.437L170.653 118.428H170.685V123.5Z" fill="#4A5660"/>
<path d="M211.197 116.172H204.749L204.557 122.364C205.245 122.012 206.333 121.74 207.197 121.74C208.429 121.74 209.725 122.252 209.725 123.996C209.725 125.372 208.749 126.156 207.613 126.156C206.605 126.156 205.805 125.564 205.485 124.668L203.741 125.308C204.333 126.828 205.677 127.788 207.565 127.788C209.821 127.788 211.693 126.3 211.693 123.788C211.693 121.5 210.013 120.204 207.789 120.204C207.389 120.204 206.813 120.252 206.461 120.348L206.573 117.9H211.197V116.172Z" fill="#4A5660"/>
<path d="M245.837 116.172L243.005 120.556C242.269 121.724 241.837 122.604 241.837 123.9C241.837 126.092 243.613 127.788 245.981 127.788C248.301 127.788 250.109 126.22 250.109 123.82C250.109 121.756 248.493 120.188 246.493 120.188C246.109 120.188 245.597 120.252 245.293 120.38L245.277 120.364L248.173 116.172H245.837ZM243.789 123.948C243.789 122.62 244.701 121.708 245.997 121.708C247.277 121.708 248.141 122.636 248.141 123.916C248.141 125.26 247.261 126.156 245.965 126.156C244.637 126.156 243.789 125.132 243.789 123.948Z" fill="#4A5660"/>
<path d="M279.933 117.9H285.613L280.845 127.5H283.101L287.629 117.932V116.172H279.933V117.9Z" fill="#4A5660"/>
<path d="M55.9972 153.884C54.0132 153.884 52.4132 155.116 52.4132 157.036C52.4132 158.348 53.1652 159.148 54.1732 159.516V159.548C53.0692 159.836 52.0452 160.828 52.0452 162.3C52.0452 164.556 53.8212 165.788 55.9972 165.788C58.1732 165.788 59.9492 164.556 59.9492 162.3C59.9492 160.908 59.0052 159.836 57.8212 159.548V159.516C58.8452 159.18 59.5812 158.268 59.5812 156.956C59.5812 155.036 57.9812 153.884 55.9972 153.884ZM55.9972 155.468C56.8612 155.468 57.6452 156.092 57.6452 157.068C57.6452 157.98 56.9092 158.716 55.9972 158.716C55.0052 158.716 54.3652 157.98 54.3652 157.068C54.3652 156.092 55.0532 155.468 55.9972 155.468ZM55.9972 160.348C57.0852 160.348 57.9492 161.164 57.9492 162.284C57.9492 163.468 57.1012 164.172 55.9972 164.172C54.8772 164.172 54.0292 163.468 54.0292 162.284C54.0292 161.132 54.8932 160.348 55.9972 160.348Z" fill="#4A5660"/>
<path d="M94.1412 165.5L96.9732 161.116C97.7092 159.948 98.1412 159.068 98.1412 157.772C98.1412 155.58 96.3652 153.884 93.9972 153.884C91.6772 153.884 89.8692 155.452 89.8692 157.852C89.8692 159.916 91.4852 161.484 93.4852 161.484C93.8692 161.484 94.3812 161.42 94.7012 161.276L94.7172 161.292L91.8052 165.5H94.1412ZM96.1892 157.724C96.1892 159.052 95.2772 159.964 93.9812 159.964C92.7012 159.964 91.8372 159.036 91.8372 157.756C91.8372 156.412 92.7172 155.484 94.0132 155.484C95.3412 155.484 96.1892 156.54 96.1892 157.724Z" fill="#4A5660"/>
<path d="M126.698 165.5H128.618V154.172H126.874L123.338 157.02L124.458 158.348L126.698 156.508V165.5ZM140.88 159.836C140.88 156.172 139.456 153.884 136.896 153.884C134.32 153.884 132.88 156.172 132.88 159.836C132.88 163.5 134.32 165.788 136.896 165.788C139.456 165.788 140.88 163.5 140.88 159.836ZM138.912 159.836C138.912 161.42 138.608 164.156 136.896 164.156C135.168 164.156 134.848 161.42 134.848 159.836C134.848 158.252 135.168 155.484 136.896 155.484C138.608 155.484 138.912 158.252 138.912 159.836Z" fill="#4A5660"/>
<path d="M164.698 165.5H166.618V154.172H164.874L161.338 157.02L162.458 158.348L164.698 156.508V165.5ZM174.464 165.5H176.384V154.172H174.64L171.104 157.02L172.224 158.348L174.464 156.508V165.5Z" fill="#4A5660"/>
<path d="M202.698 165.5H204.618V154.172H202.874L199.338 157.02L200.458 158.348L202.698 156.508V165.5ZM209.104 165.5H216.64V163.74H211.536L214.8 160.62C215.808 159.66 216.624 158.652 216.624 157.196C216.624 155.02 214.816 153.884 212.848 153.884C210.768 153.884 209.248 155.26 209.024 157.132L210.896 157.42C211.04 156.316 211.728 155.484 212.816 155.484C213.84 155.484 214.624 156.172 214.624 157.228C214.624 158.108 214.176 158.764 213.472 159.452L209.104 163.74V165.5Z" fill="#4A5660"/>
<path d="M240.698 165.5H242.618V154.172H240.874L237.338 157.02L238.458 158.348L240.698 156.508V165.5ZM249.392 160.364H249.872C251.072 160.364 252.624 160.812 252.624 162.284C252.624 163.644 251.536 164.156 250.544 164.156C249.344 164.156 248.56 163.452 248.288 162.556L246.496 163.116C247.104 165.004 248.704 165.788 250.608 165.788C252.528 165.788 254.56 164.652 254.56 162.3C254.56 160.908 253.6 159.852 252.224 159.58V159.548C253.456 159.244 254.256 158.204 254.256 156.988C254.256 154.956 252.592 153.884 250.608 153.884C248.8 153.884 247.312 154.956 246.912 156.476L248.72 156.94C248.944 156.076 249.6 155.484 250.528 155.484C251.488 155.484 252.32 156.092 252.32 157.116C252.32 158.508 251.04 158.828 249.904 158.828H249.392V160.364Z" fill="#4A5660"/>
<path d="M278.698 165.5H280.618V154.172H278.874L275.338 157.02L276.458 158.348L278.698 156.508V165.5ZM289.568 165.5H291.456V163.148H293.04V161.5H291.456V154.172H289.152L284.336 161.452V163.148H289.568V165.5ZM289.568 161.5H286.32L289.536 156.428H289.568V161.5Z" fill="#4A5660"/>
<path d="M50.6984 203.5H52.6184V192.172H50.8744L47.3384 195.02L48.4584 196.348L50.6984 194.508V203.5ZM64.08 192.172H57.632L57.44 198.364C58.128 198.012 59.216 197.74 60.08 197.74C61.312 197.74 62.608 198.252 62.608 199.996C62.608 201.372 61.632 202.156 60.496 202.156C59.488 202.156 58.688 201.564 58.368 200.668L56.624 201.308C57.216 202.828 58.56 203.788 60.448 203.788C62.704 203.788 64.576 202.3 64.576 199.788C64.576 197.5 62.896 196.204 60.672 196.204C60.272 196.204 59.696 196.252 59.344 196.348L59.456 193.9H64.08V192.172Z" fill="#4A5660"/>
<path d="M88.6984 203.5H90.6184V192.172H88.8744L85.3384 195.02L86.4584 196.348L88.6984 194.508V203.5ZM98.72 192.172L95.888 196.556C95.152 197.724 94.72 198.604 94.72 199.9C94.72 202.092 96.496 203.788 98.864 203.788C101.184 203.788 102.992 202.22 102.992 199.82C102.992 197.756 101.376 196.188 99.376 196.188C98.992 196.188 98.48 196.252 98.176 196.38L98.16 196.364L101.056 192.172H98.72ZM96.672 199.948C96.672 198.62 97.584 197.708 98.88 197.708C100.16 197.708 101.024 198.636 101.024 199.916C101.024 201.26 100.144 202.156 98.848 202.156C97.52 202.156 96.672 201.132 96.672 199.948Z" fill="#4A5660"/>
<path d="M126.698 203.5H128.618V192.172H126.874L123.338 195.02L124.458 196.348L126.698 194.508V203.5ZM132.816 193.9H138.496L133.728 203.5H135.984L140.512 193.932V192.172H132.816V193.9Z" fill="#4A5660"/>
<path d="M164.698 203.5H166.618V192.172H164.874L161.338 195.02L162.458 196.348L164.698 194.508V203.5ZM174.88 191.884C172.896 191.884 171.296 193.116 171.296 195.036C171.296 196.348 172.048 197.148 173.056 197.516V197.548C171.952 197.836 170.928 198.828 170.928 200.3C170.928 202.556 172.704 203.788 174.88 203.788C177.056 203.788 178.832 202.556 178.832 200.3C178.832 198.908 177.888 197.836 176.704 197.548V197.516C177.728 197.18 178.464 196.268 178.464 194.956C178.464 193.036 176.864 191.884 174.88 191.884ZM174.88 193.468C175.744 193.468 176.528 194.092 176.528 195.068C176.528 195.98 175.792 196.716 174.88 196.716C173.888 196.716 173.248 195.98 173.248 195.068C173.248 194.092 173.936 193.468 174.88 193.468ZM174.88 198.348C175.968 198.348 176.832 199.164 176.832 200.284C176.832 201.468 175.984 202.172 174.88 202.172C173.76 202.172 172.912 201.468 172.912 200.284C172.912 199.132 173.776 198.348 174.88 198.348Z" fill="#4A5660"/>
<rect x="193" y="183" width="30" height="30" rx="15" fill="#F04D23"/>
<path d="M202.698 203.5H204.618V192.172H202.874L199.338 195.02L200.458 196.348L202.698 194.508V203.5ZM213.024 203.5L215.856 199.116C216.592 197.948 217.024 197.068 217.024 195.772C217.024 193.58 215.248 191.884 212.88 191.884C210.56 191.884 208.752 193.452 208.752 195.852C208.752 197.916 210.368 199.484 212.368 199.484C212.752 199.484 213.264 199.42 213.584 199.276L213.6 199.292L210.688 203.5H213.024ZM215.072 195.724C215.072 197.052 214.16 197.964 212.864 197.964C211.584 197.964 210.72 197.036 210.72 195.756C210.72 194.412 211.6 193.484 212.896 193.484C214.224 193.484 215.072 194.54 215.072 195.724Z" fill="white"/>
<path d="M237.338 203.5H244.874V201.74H239.77L243.034 198.62C244.042 197.66 244.858 196.652 244.858 195.196C244.858 193.02 243.05 191.884 241.082 191.884C239.002 191.884 237.482 193.26 237.258 195.132L239.13 195.42C239.274 194.316 239.962 193.484 241.05 193.484C242.074 193.484 242.858 194.172 242.858 195.228C242.858 196.108 242.41 196.764 241.706 197.452L237.338 201.74V203.5ZM254.88 197.836C254.88 194.172 253.456 191.884 250.896 191.884C248.32 191.884 246.88 194.172 246.88 197.836C246.88 201.5 248.32 203.788 250.896 203.788C253.456 203.788 254.88 201.5 254.88 197.836ZM252.912 197.836C252.912 199.42 252.608 202.156 250.896 202.156C249.168 202.156 248.848 199.42 248.848 197.836C248.848 196.252 249.168 193.484 250.896 193.484C252.608 193.484 252.912 196.252 252.912 197.836Z" fill="#4A5660"/>
<path d="M275.338 203.5H282.874V201.74H277.77L281.034 198.62C282.042 197.66 282.858 196.652 282.858 195.196C282.858 193.02 281.05 191.884 279.082 191.884C277.002 191.884 275.482 193.26 275.258 195.132L277.13 195.42C277.274 194.316 277.962 193.484 279.05 193.484C280.074 193.484 280.858 194.172 280.858 195.228C280.858 196.108 280.41 196.764 279.706 197.452L275.338 201.74V203.5ZM288.464 203.5H290.384V192.172H288.64L285.104 195.02L286.224 196.348L288.464 194.508V203.5Z" fill="#4A5660"/>
<path d="M47.3384 241.5H54.8744V239.74H49.7704L53.0344 236.62C54.0424 235.66 54.8584 234.652 54.8584 233.196C54.8584 231.02 53.0504 229.884 51.0824 229.884C49.0024 229.884 47.4824 231.26 47.2584 233.132L49.1304 233.42C49.2744 232.316 49.9624 231.484 51.0504 231.484C52.0744 231.484 52.8584 232.172 52.8584 233.228C52.8584 234.108 52.4104 234.764 51.7064 235.452L47.3384 239.74V241.5ZM57.104 241.5H64.64V239.74H59.536L62.8 236.62C63.808 235.66 64.624 234.652 64.624 233.196C64.624 231.02 62.816 229.884 60.848 229.884C58.768 229.884 57.248 231.26 57.024 233.132L58.896 233.42C59.04 232.316 59.728 231.484 60.816 231.484C61.84 231.484 62.624 232.172 62.624 233.228C62.624 234.108 62.176 234.764 61.472 235.452L57.104 239.74V241.5Z" fill="#4A5660"/>
<path d="M85.3384 241.5H92.8744V239.74H87.7704L91.0344 236.62C92.0424 235.66 92.8584 234.652 92.8584 233.196C92.8584 231.02 91.0504 229.884 89.0824 229.884C87.0024 229.884 85.4824 231.26 85.2584 233.132L87.1304 233.42C87.2744 232.316 87.9624 231.484 89.0504 231.484C90.0744 231.484 90.8584 232.172 90.8584 233.228C90.8584 234.108 90.4104 234.764 89.7064 235.452L85.3384 239.74V241.5ZM97.392 236.364H97.872C99.072 236.364 100.624 236.812 100.624 238.284C100.624 239.644 99.536 240.156 98.544 240.156C97.344 240.156 96.56 239.452 96.288 238.556L94.496 239.116C95.104 241.004 96.704 241.788 98.608 241.788C100.528 241.788 102.56 240.652 102.56 238.3C102.56 236.908 101.6 235.852 100.224 235.58V235.548C101.456 235.244 102.256 234.204 102.256 232.988C102.256 230.956 100.592 229.884 98.608 229.884C96.8 229.884 95.312 230.956 94.912 232.476L96.72 232.94C96.944 232.076 97.6 231.484 98.528 231.484C99.488 231.484 100.32 232.092 100.32 233.116C100.32 234.508 99.04 234.828 97.904 234.828H97.392V236.364Z" fill="#4A5660"/>
<path d="M123.338 241.5H130.874V239.74H125.77L129.034 236.62C130.042 235.66 130.858 234.652 130.858 233.196C130.858 231.02 129.05 229.884 127.082 229.884C125.002 229.884 123.482 231.26 123.258 233.132L125.13 233.42C125.274 232.316 125.962 231.484 127.05 231.484C128.074 231.484 128.858 232.172 128.858 233.228C128.858 234.108 128.41 234.764 127.706 235.452L123.338 239.74V241.5ZM137.568 241.5H139.456V239.148H141.04V237.5H139.456V230.172H137.152L132.336 237.452V239.148H137.568V241.5ZM137.568 237.5H134.32L137.536 232.428H137.568V237.5Z" fill="#4A5660"/>
<path d="M161.338 241.5H168.874V239.74H163.77L167.034 236.62C168.042 235.66 168.858 234.652 168.858 233.196C168.858 231.02 167.05 229.884 165.082 229.884C163.002 229.884 161.482 231.26 161.258 233.132L163.13 233.42C163.274 232.316 163.962 231.484 165.05 231.484C166.074 231.484 166.858 232.172 166.858 233.228C166.858 234.108 166.41 234.764 165.706 235.452L161.338 239.74V241.5ZM178.08 230.172H171.632L171.44 236.364C172.128 236.012 173.216 235.74 174.08 235.74C175.312 235.74 176.608 236.252 176.608 237.996C176.608 239.372 175.632 240.156 174.496 240.156C173.488 240.156 172.688 239.564 172.368 238.668L170.624 239.308C171.216 240.828 172.56 241.788 174.448 241.788C176.704 241.788 178.576 240.3 178.576 237.788C178.576 235.5 176.896 234.204 174.672 234.204C174.272 234.204 173.696 234.252 173.344 234.348L173.456 231.9H178.08V230.172Z" fill="#4A5660"/>
<path d="M199.338 241.5H206.874V239.74H201.77L205.034 236.62C206.042 235.66 206.858 234.652 206.858 233.196C206.858 231.02 205.05 229.884 203.082 229.884C201.002 229.884 199.482 231.26 199.258 233.132L201.13 233.42C201.274 232.316 201.962 231.484 203.05 231.484C204.074 231.484 204.858 232.172 204.858 233.228C204.858 234.108 204.41 234.764 203.706 235.452L199.338 239.74V241.5ZM212.72 230.172L209.888 234.556C209.152 235.724 208.72 236.604 208.72 237.9C208.72 240.092 210.496 241.788 212.864 241.788C215.184 241.788 216.992 240.22 216.992 237.82C216.992 235.756 215.376 234.188 213.376 234.188C212.992 234.188 212.48 234.252 212.176 234.38L212.16 234.364L215.056 230.172H212.72ZM210.672 237.948C210.672 236.62 211.584 235.708 212.88 235.708C214.16 235.708 215.024 236.636 215.024 237.916C215.024 239.26 214.144 240.156 212.848 240.156C211.52 240.156 210.672 239.132 210.672 237.948Z" fill="#4A5660"/>
<path d="M237.338 241.5H244.874V239.74H239.77L243.034 236.62C244.042 235.66 244.858 234.652 244.858 233.196C244.858 231.02 243.05 229.884 241.082 229.884C239.002 229.884 237.482 231.26 237.258 233.132L239.13 233.42C239.274 232.316 239.962 231.484 241.05 231.484C242.074 231.484 242.858 232.172 242.858 233.228C242.858 234.108 242.41 234.764 241.706 235.452L237.338 239.74V241.5ZM246.816 231.9H252.496L247.728 241.5H249.984L254.512 231.932V230.172H246.816V231.9Z" fill="#4A5660"/>
<path d="M275.338 241.5H282.874V239.74H277.77L281.034 236.62C282.042 235.66 282.858 234.652 282.858 233.196C282.858 231.02 281.05 229.884 279.082 229.884C277.002 229.884 275.482 231.26 275.258 233.132L277.13 233.42C277.274 232.316 277.962 231.484 279.05 231.484C280.074 231.484 280.858 232.172 280.858 233.228C280.858 234.108 280.41 234.764 279.706 235.452L275.338 239.74V241.5ZM288.88 229.884C286.896 229.884 285.296 231.116 285.296 233.036C285.296 234.348 286.048 235.148 287.056 235.516V235.548C285.952 235.836 284.928 236.828 284.928 238.3C284.928 240.556 286.704 241.788 288.88 241.788C291.056 241.788 292.832 240.556 292.832 238.3C292.832 236.908 291.888 235.836 290.704 235.548V235.516C291.728 235.18 292.464 234.268 292.464 232.956C292.464 231.036 290.864 229.884 288.88 229.884ZM288.88 231.468C289.744 231.468 290.528 232.092 290.528 233.068C290.528 233.98 289.792 234.716 288.88 234.716C287.888 234.716 287.248 233.98 287.248 233.068C287.248 232.092 287.936 231.468 288.88 231.468ZM288.88 236.348C289.968 236.348 290.832 237.164 290.832 238.284C290.832 239.468 289.984 240.172 288.88 240.172C287.76 240.172 286.912 239.468 286.912 238.284C286.912 237.132 287.776 236.348 288.88 236.348Z" fill="#4A5660"/>
<path d="M47.3384 279.5H54.8744V277.74H49.7704L53.0344 274.62C54.0424 273.66 54.8584 272.652 54.8584 271.196C54.8584 269.02 53.0504 267.884 51.0824 267.884C49.0024 267.884 47.4824 269.26 47.2584 271.132L49.1304 271.42C49.2744 270.316 49.9624 269.484 51.0504 269.484C52.0744 269.484 52.8584 270.172 52.8584 271.228C52.8584 272.108 52.4104 272.764 51.7064 273.452L47.3384 277.74V279.5ZM61.024 279.5L63.856 275.116C64.592 273.948 65.024 273.068 65.024 271.772C65.024 269.58 63.248 267.884 60.88 267.884C58.56 267.884 56.752 269.452 56.752 271.852C56.752 273.916 58.368 275.484 60.368 275.484C60.752 275.484 61.264 275.42 61.584 275.276L61.6 275.292L58.688 279.5H61.024ZM63.072 271.724C63.072 273.052 62.16 273.964 60.864 273.964C59.584 273.964 58.72 273.036 58.72 271.756C58.72 270.412 59.6 269.484 60.896 269.484C62.224 269.484 63.072 270.54 63.072 271.724Z" fill="#4A5660"/>
<path d="M87.6264 274.364H88.1064C89.3064 274.364 90.8584 274.812 90.8584 276.284C90.8584 277.644 89.7704 278.156 88.7784 278.156C87.5784 278.156 86.7944 277.452 86.5224 276.556L84.7304 277.116C85.3384 279.004 86.9384 279.788 88.8424 279.788C90.7624 279.788 92.7944 278.652 92.7944 276.3C92.7944 274.908 91.8344 273.852 90.4584 273.58V273.548C91.6904 273.244 92.4904 272.204 92.4904 270.988C92.4904 268.956 90.8264 267.884 88.8424 267.884C87.0344 267.884 85.5464 268.956 85.1464 270.476L86.9544 270.94C87.1784 270.076 87.8344 269.484 88.7624 269.484C89.7224 269.484 90.5544 270.092 90.5544 271.116C90.5544 272.508 89.2744 272.828 88.1384 272.828H87.6264V274.364ZM102.88 273.836C102.88 270.172 101.456 267.884 98.896 267.884C96.32 267.884 94.88 270.172 94.88 273.836C94.88 277.5 96.32 279.788 98.896 279.788C101.456 279.788 102.88 277.5 102.88 273.836ZM100.912 273.836C100.912 275.42 100.608 278.156 98.896 278.156C97.168 278.156 96.848 275.42 96.848 273.836C96.848 272.252 97.168 269.484 98.896 269.484C100.608 269.484 100.912 272.252 100.912 273.836Z" fill="#4A5660"/>
<path d="M125.626 274.364H126.106C127.306 274.364 128.858 274.812 128.858 276.284C128.858 277.644 127.77 278.156 126.778 278.156C125.578 278.156 124.794 277.452 124.522 276.556L122.73 277.116C123.338 279.004 124.938 279.788 126.842 279.788C128.762 279.788 130.794 278.652 130.794 276.3C130.794 274.908 129.834 273.852 128.458 273.58V273.548C129.69 273.244 130.49 272.204 130.49 270.988C130.49 268.956 128.826 267.884 126.842 267.884C125.034 267.884 123.546 268.956 123.146 270.476L124.954 270.94C125.178 270.076 125.834 269.484 126.762 269.484C127.722 269.484 128.554 270.092 128.554 271.116C128.554 272.508 127.274 272.828 126.138 272.828H125.626V274.364ZM136.464 279.5H138.384V268.172H136.64L133.104 271.02L134.224 272.348L136.464 270.508V279.5Z" fill="#4A5660"/>
</g>
<defs>
<filter id="filter0_d_1_32" x="0" y="0" width="344" height="348" filterUnits="userSpaceOnUse" color-interpolation-filters="sRGB">
<feFlood flood-opacity="0" result="BackgroundImageFix"/>
<feColorMatrix in="SourceAlpha" type="matrix" values="0 0 0 0 0 0 0 0 0 0 0 0 0 0 0 0 0 0 127 0" result="hardAlpha"/>
<feOffset dx="2" dy="16"/>
<feGaussianBlur stdDeviation="9.5"/>
<feColorMatrix type="matrix" values="0 0 0 0 0 0 0 0 0 0 0 0 0 0 0 0 0 0 0.09 0"/>
<feBlend mode="normal" in2="BackgroundImageFix" result="effect1_dropShadow_1_32"/>
<feBlend mode="normal" in="SourceGraphic" in2="effect1_dropShadow_1_32" result="shape"/>
</filter>
<clipPath id="clip0_1_32">
<rect width="258" height="16" fill="white" transform="translate(41 27)"/>
</clipPath>
</defs>
</svg>
